<?xml version="1.0" encoding="utf-8"?>
<!-- Generator: Adobe Illustrator 27.5.0, SVG Export Plug-In . SVG Version: 6.00 Build 0)  -->
<svg version="1.1" xmlns="http://www.w3.org/2000/svg" xmlns:xlink="http://www.w3.org/1999/xlink" x="0px" y="0px"
	 viewBox="0 0 800 500" style="enable-background:new 0 0 800 500;" xml:space="preserve">
<g id="_x36_1">
	<g>
		<g>
			<defs>
				<rect id="SVGID_1_" width="800" height="500"/>
			</defs>
			<use xlink:href="#SVGID_1_"  style="overflow:visible;fill:#000422;"/>
			<clipPath id="SVGID_00000136409351964172171320000014493966455584472239_">
				<use xlink:href="#SVGID_1_"  style="overflow:visible;"/>
			</clipPath>
			<g style="clip-path:url(#SVGID_00000136409351964172171320000014493966455584472239_);">
				<g>
					<g>
						<g>
							<path style="fill:#D6244E;" d="M403.056,558.38c-44.719,0-51.329-3.53-51.858-6.686
								c-1.106-6.595,29.484-16.802,71.823-30.929c72.1-24.057,170.844-57.003,168.246-91.827
								c-1.953-26.179-62.665-49.897-180.451-70.494c-136.378-23.847-203.095-46.802-203.963-70.176
								c-0.972-26.157,80.954-46.847,146.782-63.472c40.523-10.234,75.521-19.073,75.235-25.633
								c-0.119-2.73-6.761-5.178-19.74-7.276c-15.45-2.498-24.043-7.37-26.273-14.894c-5.403-18.234,28.959-49.387,65.34-82.369
								c43.315-39.27,92.411-83.779,81.392-113.448c-8.252-22.22-48.454-33.937-122.904-35.818l0.02-0.75
								c74.791,1.89,115.218,13.766,123.588,36.307C541.488,11.06,492.193,55.75,448.7,95.18
								c-36.2,32.819-70.393,63.818-65.124,81.601c2.139,7.22,10.537,11.919,25.673,14.366c13.757,2.224,20.229,4.761,20.37,7.984
								c0.313,7.17-33.276,15.653-75.8,26.393c-65.566,16.559-147.165,37.167-146.216,62.716
								c0.841,22.647,69.255,46.02,203.343,69.466c62.416,10.915,109.243,22.782,139.181,35.273
								c26.854,11.205,40.948,23.285,41.89,35.903c2.642,35.406-96.423,68.46-168.757,92.595
								c-38.806,12.948-72.321,24.131-71.321,30.093c0.747,4.451,20.7,6.42,60.965,6.009l0.008,0.75
								C409.438,558.363,406.151,558.38,403.056,558.38z"/>
						</g>
					</g>
					<g>
						<g>
							<path style="fill:#E60C36;" d="M407.322,564.596c-44.056,0-50.606-3.6-51.165-6.813
								c-1.167-6.719,28.853-17.134,70.402-31.548c70.747-24.543,167.638-58.156,164.901-93.734
								c-2.052-26.683-61.58-50.879-176.933-71.918c-133.665-24.381-199.083-47.82-199.993-71.657
								c-1.019-26.695,79.325-47.783,143.883-64.728c39.733-10.428,74.047-19.435,73.747-26.139
								c-0.125-2.789-6.636-5.291-19.353-7.436c-15.004-2.531-23.412-7.431-25.703-14.981c-5.635-18.569,28.167-50.463,63.956-84.23
								c42.714-40.302,91.127-85.981,79.556-116.279C522.091-47.202,482.738-59,410.314-60.936l0.02-0.75
								c72.762,1.944,112.337,13.9,120.988,36.551c11.75,30.767-36.857,76.629-79.742,117.093
								c-35.614,33.602-69.253,65.342-63.753,83.467c2.2,7.251,10.414,11.981,25.11,14.46c13.482,2.273,19.83,4.861,19.977,8.141
								c0.328,7.309-32.608,15.954-74.305,26.898C294.31,241.8,214.29,262.803,215.285,288.897
								c0.413,10.829,15.333,21.9,44.347,32.904c32.913,12.484,85.073,25.284,155.031,38.044
								c61.123,11.148,107.002,23.262,136.361,36.002c26.34,11.431,40.196,23.743,41.185,36.597
								c2.78,36.154-94.427,69.877-165.404,94.501c-38.08,13.211-70.966,24.619-69.908,30.71c0.788,4.532,20.333,6.546,59.759,6.142
								l0.008,0.75C413.377,564.579,410.265,564.596,407.322,564.596z"/>
						</g>
					</g>
					<g>
						<g>
							<path style="fill:#FA1058;" d="M411.521,570.941c-43.415,0-49.901-3.668-50.491-6.94
								c-1.233-6.846,28.23-17.474,69.008-32.183c69.423-25.043,164.5-59.339,161.618-95.69
								c-2.155-27.191-60.522-51.875-173.481-73.364c-131.007-24.923-195.154-48.854-196.107-73.163
								c-1.067-27.245,77.726-48.739,141.037-66.01c38.957-10.627,72.602-19.806,72.287-26.655
								c-0.132-2.849-6.515-5.405-18.974-7.597c-14.563-2.563-22.786-7.489-25.137-15.059c-5.872-18.91,27.386-51.568,62.596-86.144
								c42.13-41.372,89.882-88.263,77.737-119.201c-8.805-22.432-47.318-34.303-117.741-36.29l0.021-0.75
								c70.756,1.997,109.491,14.023,118.418,36.766c12.325,31.399-35.614,78.476-77.91,120.01
								c-35.042,34.411-68.141,66.914-62.405,85.386c2.259,7.276,10.29,12.033,24.551,14.543
								c13.212,2.324,19.437,4.962,19.592,8.301c0.344,7.45-31.951,16.26-72.838,27.413
								c-63.055,17.201-141.529,38.608-140.485,65.257c0.433,11.052,15.079,22.354,43.533,33.591
								c32.274,12.745,83.402,25.821,151.965,38.865c59.852,11.386,104.798,23.747,133.592,36.741
								c25.834,11.659,39.459,24.208,40.497,37.3c2.927,36.922-92.462,71.33-162.111,96.454
								c-37.371,13.481-69.646,25.122-68.525,31.345c0.831,4.614,19.994,6.669,58.581,6.276l0.008,0.75
								C417.255,570.926,414.31,570.941,411.521,570.941z"/>
						</g>
					</g>
					<g>
						<g>
							<path style="fill:#DC248A;" d="M415.286,577.413c-33.227,0-48.577-2.218-49.481-7.066
								c-1.301-6.972,27.614-17.817,67.634-32.827c68.132-25.554,161.442-60.551,158.408-97.695
								c-2.263-27.708-59.492-52.884-170.1-74.827c-128.395-25.475-191.294-49.908-192.291-74.698
								c-1.119-27.807,76.156-49.718,138.247-67.324c38.199-10.831,71.19-20.186,70.858-27.186c-0.139-2.911-6.396-5.522-18.6-7.762
								c-14.133-2.594-22.173-7.542-24.581-15.126c-6.112-19.253,26.61-52.698,61.254-88.106
								c41.563-42.481,88.671-90.628,75.934-122.217c-9.077-22.511-46.762-34.446-115.207-36.485l0.021-0.75
								c68.776,2.05,106.681,14.138,115.881,36.955c12.92,32.043-34.37,80.377-76.094,123.022
								c-34.481,35.243-67.05,68.531-61.075,87.355c2.316,7.296,10.167,12.077,24,14.615c12.947,2.377,19.053,5.066,19.214,8.464
								c0.36,7.595-31.308,16.575-71.403,27.943c-61.838,17.534-138.797,39.356-137.702,66.573
								c0.454,11.279,14.832,22.815,42.736,34.29c31.646,13.013,81.761,26.37,148.952,39.701
								c58.602,11.627,102.634,24.24,130.872,37.49c25.34,11.89,38.74,24.679,39.829,38.012
								c3.079,37.709-90.537,72.821-158.893,98.459c-36.673,13.755-68.346,25.634-67.16,31.987
								c0.876,4.694,19.66,6.786,57.421,6.408l0.008,0.75C420.952,577.398,418.055,577.413,415.286,577.413z"/>
						</g>
					</g>
					<g>
						<g>
							<path style="fill:#AE6686;" d="M419.286,584.023c-32.703,0-47.837-2.256-48.792-7.191
								c-1.373-7.103,27.007-18.172,66.288-33.492c66.868-26.079,158.447-61.798,155.254-99.756
								c-1.118-13.297-14.159-26.124-38.761-38.124c-27.638-13.482-70.71-26.33-128.022-38.188
								c-125.835-26.034-187.512-50.979-188.557-76.256c-1.173-28.382,74.612-50.719,135.506-68.666
								c37.457-11.041,69.807-20.575,69.457-27.729c-0.145-2.973-6.279-5.641-18.234-7.929c-13.705-2.623-21.564-7.59-24.027-15.184
								c-6.356-19.6,25.844-53.854,59.935-90.12c41.012-43.628,87.495-93.077,74.147-125.324
								c-9.342-22.57-46.207-34.558-112.702-36.647l0.023-0.75c66.82,2.1,103.904,14.239,113.372,37.11
								c13.532,32.694-33.127,82.331-74.294,126.124c-33.935,36.099-65.987,70.197-59.769,89.375
								c2.371,7.31,10.043,12.111,23.454,14.679c12.688,2.429,18.675,5.17,18.844,8.629c0.377,7.743-30.678,16.896-69.995,28.484
								c-60.645,17.874-136.118,40.12-134.969,67.916c0.476,11.511,14.593,23.287,41.959,35.002
								c31.033,13.284,80.155,26.928,146.001,40.551c57.372,11.87,100.504,24.738,128.198,38.248
								c24.856,12.124,38.037,25.156,39.179,38.735c3.241,38.516-88.64,74.352-155.729,100.518
								c-35.993,14.038-67.078,26.162-65.824,32.65c0.924,4.774,19.341,6.919,56.287,6.54l0.008,0.75
								C424.665,584.008,421.917,584.023,419.286,584.023z"/>
						</g>
					</g>
					<g>
						<g>
							<path style="fill:#BE12CA;" d="M423.2,590.766c-32.18,0-47.101-2.294-48.107-7.316c-1.449-7.234,26.41-18.534,64.967-34.173
								c65.632-26.62,155.518-63.077,152.157-101.87c-1.174-13.551-14.006-26.626-38.139-38.863
								c-27.104-13.742-69.291-26.848-125.391-38.95c-123.318-26.603-183.796-52.065-184.891-77.84
								c-1.23-28.97,73.099-51.744,132.823-70.043c36.728-11.254,68.449-20.973,68.082-28.282c-0.152-3.036-6.167-5.76-17.878-8.098
								c-13.284-2.652-20.964-7.634-23.478-15.23c-6.604-19.951,25.085-55.039,58.633-92.187
								c40.476-44.817,86.351-95.615,72.373-128.531c-9.603-22.611-45.659-34.642-110.231-36.78l0.025-0.75
								C489.041-86,525.315-73.82,535.044-50.912c14.165,33.356-31.881,84.343-72.507,129.327
								c-33.397,36.981-64.943,71.912-58.477,91.448c2.422,7.318,9.917,12.137,22.912,14.731c12.432,2.482,18.304,5.276,18.48,8.796
								c0.397,7.893-30.057,17.224-68.611,29.037c-59.477,18.224-133.498,40.903-132.293,69.295
								c0.499,11.746,14.36,23.766,41.199,35.726c30.431,13.56,78.577,27.493,143.101,41.413
								c56.162,12.115,98.41,25.242,125.571,39.014c24.38,12.362,37.349,25.641,38.547,39.468
								c3.408,39.344-86.773,75.922-152.622,102.63c-35.33,14.329-65.841,26.704-64.514,33.33
								c0.973,4.856,19.012,7.036,55.173,6.673l0.008,0.75C428.303,590.752,425.698,590.766,423.2,590.766z"/>
						</g>
					</g>
					<g>
						<g>
							<path style="fill:#D8445E;" d="M427.035,597.65c-31.662,0-46.369-2.332-47.43-7.441c-1.53-7.37,25.82-18.907,63.675-34.874
								c64.423-27.175,152.654-64.392,149.118-104.04c-1.231-13.807-13.86-27.134-37.535-39.609
								c-26.58-14.006-67.897-27.37-122.805-39.72c-120.85-27.184-180.153-53.173-181.298-79.455
								c-1.289-29.572,71.613-52.793,130.19-71.451c36.015-11.472,67.12-21.379,66.734-28.849c-0.16-3.1-6.057-5.882-17.526-8.27
								c-12.871-2.679-20.374-7.673-22.937-15.268c-6.853-20.307,24.334-56.252,57.353-94.309
								c39.953-46.049,85.236-98.243,70.61-131.837c-9.853-22.631-45.109-34.695-107.781-36.882l0.025-0.749
								c62.99,2.198,98.463,14.409,108.443,37.333c14.815,34.027-30.633,86.411-70.731,132.628
								c-32.873,37.89-63.924,73.678-57.208,93.578c2.471,7.321,9.79,12.153,22.378,14.773c12.18,2.536,17.939,5.385,18.123,8.966
								c0.415,8.047-29.447,17.559-67.255,29.602c-58.334,18.581-130.933,41.705-129.669,70.703
								c0.522,11.986,14.134,24.255,40.456,36.464c29.84,13.842,77.03,28.07,140.256,42.292
								c54.973,12.365,96.353,25.752,122.99,39.789c23.914,12.602,36.677,26.129,37.933,40.206
								c3.585,40.193-84.938,77.533-149.574,104.797c-34.683,14.63-64.636,27.265-63.232,34.031
								c1.025,4.938,18.713,7.161,54.08,6.805l0.008,0.75C431.869,597.638,429.403,597.65,427.035,597.65z"/>
						</g>
					</g>
					<g>
						<g>
							<path style="fill:#F23E10;" d="M430.779,604.678c-31.136,0-45.626-2.369-46.743-7.565
								c-1.614-7.507,25.238-19.287,62.402-35.591c63.243-27.745,149.856-65.742,146.137-106.268
								c-1.292-14.067-13.723-27.649-36.949-40.366c-26.066-14.272-66.528-27.898-120.265-40.499
								c-118.426-27.772-176.577-54.298-177.776-81.096c-1.351-30.188,70.152-53.866,127.606-72.892
								c35.318-11.696,65.82-21.796,65.415-29.43c-0.167-3.165-5.949-6.007-17.184-8.446c-12.465-2.705-19.791-7.709-22.4-15.295
								c-7.104-20.666,23.592-57.495,56.09-96.486c39.444-47.325,84.151-100.964,68.858-135.243
								c-10.097-22.631-44.561-34.718-105.362-36.95l0.027-0.749c61.116,2.244,95.795,14.476,106.02,37.394
								c15.482,34.705-29.383,88.535-68.968,136.028c-32.358,38.825-62.924,75.496-55.957,95.762
								c2.516,7.318,9.663,12.161,21.849,14.806c11.771,2.555,17.584,5.545,17.774,9.14c0.435,8.205-28.851,17.903-65.928,30.181
								c-57.214,18.946-128.418,42.525-127.093,72.145c0.547,12.23,13.915,24.752,39.732,37.215
								c29.262,14.127,75.513,28.656,137.467,43.185c53.801,12.616,94.327,26.267,120.453,40.571
								c23.458,12.845,36.02,26.624,37.335,40.956c3.769,41.064-83.13,79.187-146.581,107.023
								c-35.453,15.553-63.456,27.838-61.971,34.747c1.079,5.018,18.411,7.292,53.012,6.936l0.008,0.75
								C435.367,604.665,433.027,604.678,430.779,604.678z"/>
						</g>
					</g>
					<g>
						<g>
							<path style="fill:#D016B6;" d="M434.43,611.845c-30.597,0-44.873-2.406-46.048-7.686
								c-1.703-7.646,24.662-19.676,61.151-36.324c62.091-28.329,147.128-67.128,143.216-108.556
								c-1.354-14.33-13.593-28.169-36.38-41.132c-25.563-14.542-65.186-28.433-117.768-41.287
								c-116.046-28.368-173.067-55.441-174.323-82.763c-1.416-30.817,68.718-54.965,125.072-74.369
								c34.635-11.925,64.546-22.224,64.12-30.024c-0.176-3.231-5.845-6.133-16.848-8.624c-12.064-2.73-19.216-7.738-21.865-15.311
								c-7.356-21.026,22.858-58.762,54.846-98.714c38.95-48.646,83.097-103.784,67.12-138.756
								c-10.329-22.611-44.01-34.709-102.968-36.987l0.029-0.749c59.268,2.289,93.163,14.531,103.621,37.425
								c16.168,35.392-28.132,90.721-67.217,139.537c-31.854,39.785-61.942,77.363-54.724,97.997
								c2.557,7.309,9.532,12.159,21.323,14.827c11.529,2.61,17.231,5.656,17.431,9.314c0.457,8.366-28.264,18.254-64.625,30.774
								c-56.117,19.322-125.958,43.369-124.567,73.626c0.573,12.479,13.703,25.257,39.024,37.978
								c28.695,14.416,74.024,29.25,134.727,44.09c52.65,12.87,92.338,26.787,117.961,41.363
								c23.012,13.091,35.378,27.125,36.755,41.714c3.962,41.959-81.354,80.886-143.65,109.309
								c-34.808,15.881-62.301,28.426-60.73,35.479c1.135,5.096,18.125,7.412,51.957,7.063l0.008,0.75
								C438.782,611.833,436.565,611.845,434.43,611.845z"/>
						</g>
					</g>
					<g>
						<g>
							<path style="fill:#822A6A;" d="M438.013,619.162c-30.075,0-44.137-2.442-45.374-7.807
								c-1.795-7.788,24.094-20.074,59.928-37.079c60.966-28.931,144.462-68.553,140.35-110.905
								c-1.417-14.597-13.471-28.696-35.826-41.906c-25.07-14.813-63.867-28.972-115.314-42.082
								c-113.71-28.975-169.624-56.601-170.938-84.457c-1.484-31.465,67.311-56.093,122.589-75.882
								c33.964-12.159,63.296-22.66,62.849-30.63c-0.185-3.298-5.742-6.26-16.519-8.803c-11.671-2.754-18.65-7.764-21.337-15.318
								c-7.609-21.391,22.133-60.061,53.621-101.001c38.467-50.014,82.065-106.7,65.39-142.372
								c-10.551-22.57-43.456-34.67-100.598-36.991l0.031-0.749c57.447,2.334,90.565,14.575,101.246,37.422
								c16.869,36.085-26.878,92.964-65.476,143.147c-31.359,40.774-60.98,79.286-53.509,100.293
								c2.595,7.295,9.399,12.149,20.803,14.839c11.295,2.665,16.887,5.77,17.096,9.491c0.478,8.529-27.686,18.612-63.345,31.378
								c-55.045,19.706-123.551,44.231-122.093,75.14c0.601,12.733,13.498,25.772,38.334,38.756
								c28.14,14.712,72.564,29.855,132.04,45.011c51.516,13.128,90.379,27.313,115.51,42.163
								c22.574,13.339,34.75,27.631,36.192,42.479c4.162,42.877-79.608,82.63-140.775,111.656
								c-34.181,16.221-61.179,29.032-59.519,36.232c1.193,5.175,17.867,7.52,50.923,7.192l0.008,0.75
								C442.134,619.151,440.034,619.162,438.013,619.162z"/>
						</g>
					</g>
					<g>
						<g>
							<path style="fill:#B05EA0;" d="M441.508,626.633c-29.537,0-43.383-2.479-44.684-7.925
								c-1.893-7.932,23.532-20.482,58.724-37.852c59.867-29.55,141.857-70.021,137.536-113.324
								c-1.483-14.865-13.357-29.228-35.29-42.688c-24.586-15.088-62.57-29.516-112.9-42.884
								c-111.417-29.593-166.246-57.784-167.621-86.185c-1.555-32.126,65.93-57.247,120.156-77.431
								c33.307-12.398,62.071-23.105,61.602-31.248c-0.193-3.366-5.643-6.389-16.194-8.984
								c-11.287-2.776-18.096-7.786-20.816-15.316c-7.861-21.76,21.416-61.39,52.413-103.347
								c37.994-51.427,81.057-109.716,63.668-146.094c-10.76-22.508-42.897-34.598-98.249-36.962l0.031-0.749
								c55.655,2.376,88.004,14.605,98.895,37.387c17.583,36.784-25.622,95.266-63.741,146.863
								c-30.874,41.79-60.036,81.263-52.312,102.646c2.629,7.276,9.266,12.131,20.291,14.842c11.061,2.721,16.546,5.884,16.764,9.67
								c0.501,8.696-27.119,18.977-62.089,31.994c-53.997,20.099-121.197,45.113-119.668,76.691
								c0.628,12.99,13.299,26.296,37.66,39.549c27.595,15.012,71.133,30.471,129.405,45.948
								c50.399,13.387,88.451,27.844,113.099,42.969c22.145,13.59,34.137,28.143,35.645,43.253
								c4.373,43.82-77.887,84.424-137.95,114.071c-33.567,16.568-60.081,29.655-58.326,37.006
								c1.253,5.252,17.592,7.637,49.911,7.317l0.008,0.75C445.419,626.622,443.428,626.633,441.508,626.633z"/>
						</g>
					</g>
					<g>
						<g>
							<path style="fill:#A65A48;" d="M445.202,634.255c-28.814,0-42.922-2.576-44.272-8.041
								c-1.996-8.079,22.978-20.901,57.543-38.648c58.792-30.186,139.31-71.525,134.771-115.805
								c-1.551-15.136-13.249-29.763-34.769-43.477c-24.111-15.363-61.298-30.065-110.526-43.692
								c-109.166-30.22-162.932-58.984-164.37-87.939c-1.629-32.803,64.572-58.428,117.765-79.017
								c32.665-12.643,60.874-23.563,60.382-31.884c-0.203-3.436-5.546-6.52-15.878-9.17c-10.91-2.797-17.55-7.803-20.3-15.304
								c-8.112-22.132,20.71-62.747,51.225-105.747c37.533-52.89,80.074-112.837,61.957-149.925
								c-10.955-22.425-42.332-34.495-95.925-36.898l0.033-0.749c53.892,2.417,85.479,14.624,96.565,37.318
								c18.313,37.488-24.365,97.628-62.019,150.688c-30.397,42.835-59.108,83.294-51.132,105.056
								c2.657,7.252,9.128,12.104,19.78,14.835c10.835,2.778,16.213,6,16.44,9.852c0.525,8.867-26.563,19.353-60.858,32.627
								c-52.969,20.503-118.89,46.019-117.288,78.281c0.658,13.252,13.107,26.829,37.003,40.353
								c27.062,15.316,69.729,31.096,126.817,46.899c49.302,13.648,86.557,28.379,110.731,43.783
								c21.724,13.843,33.537,28.657,35.112,44.032c4.591,44.788-76.19,86.264-135.175,116.548
								c-32.97,16.928-59.012,30.299-57.158,37.801c1.316,5.329,17.325,7.765,48.914,7.443l0.008,0.75
								C448.734,634.245,446.94,634.255,445.202,634.255z"/>
						</g>
					</g>
					<g>
						<g>
							<path style="fill:#BC483C;" d="M448.529,642.032c-28.272,0-42.151-2.61-43.568-8.153
								c-2.103-8.227,22.428-21.328,56.382-39.462c57.743-30.839,136.826-73.075,132.062-118.357
								c-1.621-15.409-13.149-30.305-34.265-44.272c-23.646-15.643-60.048-30.616-108.194-44.507
								c-55.987-16.152-97.858-32.282-124.451-47.94c-23.67-13.938-36.027-27.995-36.729-41.781
								c-1.706-33.497,63.236-59.638,115.419-80.644c32.035-12.895,59.7-24.031,59.184-32.534
								c-0.214-3.505-5.452-6.653-15.569-9.357c-10.54-2.816-17.012-7.815-19.785-15.282
								c-8.361-22.506,20.013-64.134,50.053-108.206c37.082-54.402,79.11-116.063,60.253-153.865
								c-11.135-22.322-41.76-34.36-93.623-36.803l0.035-0.749c52.159,2.456,82.992,14.63,94.259,37.217
								c19.055,38.196-23.106,100.05-60.304,154.622c-29.928,43.908-58.196,85.38-49.97,107.523
								c2.683,7.222,8.988,12.07,19.275,14.819c10.611,2.836,15.886,6.119,16.124,10.037c0.551,9.042-26.017,19.736-59.651,33.275
								c-51.962,20.916-116.63,46.947-114.951,79.91c0.689,13.519,12.923,27.371,36.361,41.173
								c26.539,15.627,68.353,31.731,124.278,47.866c48.22,13.911,84.692,28.918,108.4,44.602
								c21.312,14.099,32.952,29.178,34.598,44.82c4.817,45.783-74.523,88.157-132.455,119.098
								c-32.386,17.296-57.966,30.958-56.008,38.614c1.382,5.402,17.086,7.87,47.94,7.563l0.008,0.75
								C451.885,642.023,450.18,642.032,448.529,642.032z"/>
						</g>
					</g>
					<g>
						<g>
							<path style="fill:#8208DA;" d="M451.82,649.976c-27.745,0-41.412-2.647-42.899-8.269
								c-2.217-8.379,21.886-21.769,55.245-40.305c56.717-31.512,134.393-74.669,129.394-120.979
								c-1.693-15.684-13.057-30.85-33.775-45.076c-23.19-15.922-58.818-31.173-105.898-45.327
								c-54.846-16.49-95.88-32.951-121.962-48.926c-23.215-14.22-35.359-28.555-36.093-42.607
								c-1.787-34.208,61.928-60.879,113.123-82.31c31.418-13.152,58.552-24.51,58.009-33.198
								c-0.224-3.576-5.359-6.788-15.264-9.546c-10.18-2.835-16.486-7.825-19.28-15.254c-8.608-22.885,19.325-65.553,48.898-110.726
								C517.954-8.51,559.479-71.941,539.871-110.46c-11.3-22.197-41.178-34.193-91.341-36.672l0.037-0.749
								c50.455,2.494,80.539,14.623,91.972,37.081c19.807,38.906-21.846,102.53-58.595,158.665
								c-29.466,45.009-57.298,87.522-48.824,110.051c2.704,7.19,8.847,12.029,18.779,14.795
								c10.391,2.894,15.561,6.238,15.811,10.223c0.576,9.22-25.479,20.127-58.468,33.936
								c-50.978,21.34-114.422,47.898-112.663,81.579c0.721,13.79,12.744,27.923,35.736,42.006
								c26.026,15.941,67.001,32.376,121.787,48.847c47.153,14.178,82.853,29.462,106.107,45.428
								c20.906,14.356,32.378,29.702,34.096,45.614c5.053,46.805-72.874,90.101-129.774,121.716
								c-31.819,17.679-56.951,31.642-54.884,39.457c1.449,5.477,16.827,7.995,46.981,7.685l0.008,0.75
								C454.985,649.967,453.38,649.976,451.82,649.976z"/>
						</g>
					</g>
					<g>
						<g>
							<path style="fill:#E26E96;" d="M455.01,658.078c-27.202,0-40.649-2.681-42.207-8.375
								c-2.335-8.531,21.347-22.219,54.123-41.163c55.718-32.204,132.027-76.309,126.784-123.681
								c-1.767-15.963-12.97-31.401-33.3-45.888c-22.741-16.206-57.611-31.735-103.642-46.157
								c-53.727-16.832-93.939-33.63-119.519-49.926c-22.77-14.507-34.705-29.124-35.472-43.444
								c-1.871-34.936,60.639-62.15,110.867-84.016c30.815-13.415,57.428-25,56.858-33.878c-0.237-3.699-5.132-6.884-14.965-9.739
								c-9.827-2.852-15.97-7.829-18.78-15.216c-8.851-23.266,18.648-67.001,47.762-113.305
								c36.202-57.578,77.234-122.838,56.863-162.076c-11.448-22.052-40.586-33.995-89.078-36.509l0.039-0.749
								c48.78,2.529,78.123,14.604,89.705,36.912c20.568,39.619-20.585,105.073-56.894,162.821
								c-29.011,46.141-56.413,89.723-47.695,112.639c2.721,7.151,8.702,11.98,18.288,14.763
								c10.173,2.953,15.244,6.358,15.504,10.411c0.603,9.403-24.952,20.528-57.307,34.614
								c-50.015,21.773-112.26,48.871-110.417,83.287c0.753,14.066,12.571,28.483,35.125,42.853
								c25.525,16.261,65.677,33.031,119.341,49.844c46.105,14.445,81.046,30.01,103.853,46.262
								c20.511,14.615,31.818,30.232,33.609,46.416c5.297,47.858-71.257,92.104-127.154,124.412
								c-31.264,18.07-55.957,32.343-53.775,40.316c1.518,5.546,16.589,8.094,46.039,7.799l0.008,0.75
								C458.011,658.07,456.489,658.078,455.01,658.078z"/>
						</g>
					</g>
					<g>
						<g>
							<path style="fill:#FA46DA;" d="M458.134,666.347c-26.661,0-39.886-2.713-41.518-8.478
								c-2.458-8.686,20.814-22.679,53.022-42.046c54.742-32.917,129.715-77.997,124.22-126.457
								c-1.842-16.242-12.891-31.956-32.839-46.704c-22.304-16.489-56.427-32.299-101.424-46.988
								c-52.627-17.18-92.032-34.319-117.12-50.942c-22.334-14.798-34.064-29.702-34.865-44.298
								c-1.958-35.683,59.373-63.452,108.653-85.765c30.224-13.685,56.326-25.503,55.729-34.575
								c-0.248-3.773-5.049-7.023-14.675-9.935c-9.482-2.868-15.464-7.83-18.284-15.17c-9.089-23.648,17.982-68.478,46.643-115.939
								c35.775-59.245,76.325-126.395,55.185-166.355c-11.58-21.889-39.985-33.769-86.839-36.317l0.041-0.749
								c47.139,2.564,75.747,14.574,87.461,36.715c21.338,40.336-19.328,107.679-55.207,167.094
								c-28.563,47.3-55.541,91.977-46.584,115.283c2.731,7.109,8.555,11.925,17.801,14.721c9.961,3.013,14.936,6.482,15.206,10.603
								c0.631,9.59-24.434,20.939-56.168,35.308c-49.072,22.219-110.144,49.871-108.214,85.04
								c0.787,14.347,12.405,29.054,34.53,43.714c25.032,16.586,64.376,33.695,116.938,50.854
								c45.073,14.715,79.27,30.561,101.638,47.099c20.122,14.877,31.271,30.765,33.138,47.222
								c5.549,48.939-69.662,94.163-124.578,127.184c-30.723,18.474-54.988,33.065-52.686,41.199
								c1.589,5.614,16.353,8.206,45.111,7.91l0.008,0.75C460.979,666.339,459.537,666.347,458.134,666.347z"/>
						</g>
					</g>
					<g>
						<g>
							<path style="fill:#F83C64;" d="M461.206,674.787c-26.126,0-39.137-2.745-40.844-8.58
								c-2.587-8.845,20.284-23.152,51.94-42.956c53.787-33.648,127.451-79.732,121.695-129.309
								c-1.918-16.524-12.816-32.515-32.391-47.526c-21.873-16.775-55.263-32.866-99.243-47.825
								c-51.546-17.534-90.158-35.02-114.765-51.977c-21.906-15.094-33.438-30.29-34.273-45.165
								c-2.048-36.449,58.13-64.789,106.485-87.56c29.645-13.961,55.246-26.017,54.62-35.286c-0.26-3.847-4.966-7.161-14.389-10.13
								c-9.018-2.843-15.006-7.93-17.794-15.118c-9.321-24.035,17.328-69.988,45.541-118.638
								C523.144-26.249,563.217-95.35,541.3-136.031c-11.693-21.706-39.373-33.511-84.62-36.091l0.043-0.749
								c45.529,2.596,73.41,14.53,85.238,36.484c22.115,41.051-18.069,110.344-53.523,171.48
								c-28.121,48.49-54.682,94.291-45.491,117.991c2.74,7.064,8.405,11.863,17.32,14.674c9.751,3.074,14.629,6.605,14.911,10.795
								c0.66,9.78-23.924,21.357-55.049,36.015c-48.15,22.675-108.075,50.895-106.055,86.839
								c0.822,14.632,12.244,29.634,33.95,44.59c24.55,16.916,63.1,34.372,114.582,51.884c44.057,14.985,77.52,31.115,99.458,47.939
								c19.741,15.141,30.736,31.302,32.679,48.035c5.81,50.048-68.086,96.277-122.043,130.032
								c-30.194,18.89-54.045,33.81-51.617,42.108c1.662,5.681,16.104,8.301,44.201,8.02l0.008,0.75
								C463.895,674.779,462.533,674.787,461.206,674.787z"/>
						</g>
					</g>
					<g>
						<g>
							<path style="fill:#C40842;" d="M464.208,683.399c-25.593,0-38.387-2.774-40.17-8.676
								c-2.722-9.004,19.76-23.636,50.875-43.888c52.857-34.402,125.248-81.517,119.224-132.246
								c-1.995-16.807-12.746-33.076-31.954-48.355c-21.45-17.063-54.118-33.438-97.097-48.669
								c-50.485-17.892-88.321-35.73-112.456-53.022c-21.488-15.396-32.825-30.888-33.697-46.046
								c-2.142-37.233,56.907-66.157,104.353-89.398c29.078-14.243,54.19-26.544,53.536-36.016
								c-0.272-3.922-4.887-7.301-14.109-10.33c-8.697-2.856-14.522-7.923-17.311-15.059
								c-9.549-24.425,16.684-71.527,44.457-121.396c34.941-62.741,74.545-133.852,51.848-175.253
								c-11.789-21.503-38.749-33.225-82.421-35.835l0.045-0.749c43.95,2.627,71.111,14.476,83.033,36.223
								c22.896,41.765-16.813,113.069-51.85,175.979c-27.685,49.71-53.834,96.663-44.414,120.758
								c2.742,7.015,8.253,11.797,16.847,14.619c9.545,3.135,14.328,6.73,14.623,10.991c0.69,9.975-23.425,21.787-53.954,36.741
								c-47.247,23.143-106.047,51.945-103.935,88.681c0.858,14.921,12.091,30.223,33.385,45.479
								c24.077,17.251,61.85,35.058,112.269,52.925c43.057,15.26,75.798,31.675,97.314,48.79
								c19.368,15.406,30.213,31.843,32.232,48.853c6.078,51.191-66.537,98.454-119.559,132.964
								c-29.682,19.318-53.125,34.577-50.566,43.042c1.736,5.743,15.912,8.391,43.307,8.123l0.008,0.75
								C466.753,683.394,465.464,683.399,464.208,683.399z"/>
						</g>
					</g>
					<g>
						<g>
							<path style="fill:#D830B0;" d="M467.141,692.19c-25.053,0-37.631-2.804-39.493-8.768c-2.862-9.165,19.24-24.133,49.83-44.849
								c51.948-35.18,123.094-83.359,116.793-135.27c-2.075-17.092-12.684-33.641-31.531-49.186
								c-21.036-17.35-52.994-34.008-94.986-49.512c-49.443-18.255-86.516-36.452-110.188-54.086
								c-21.077-15.702-32.225-31.496-33.134-46.943c-2.238-38.039,55.705-67.561,102.263-91.283
								c28.523-14.533,53.157-27.084,52.471-36.763c-0.283-3.998-4.808-7.443-13.833-10.532
								c-8.384-2.869-14.048-7.914-16.835-14.995c-9.769-24.817,16.054-73.099,43.392-124.215
								c34.532-64.57,73.673-137.755,50.191-179.874c-11.865-21.283-38.112-32.911-80.242-35.548l0.047-0.748
								c42.405,2.655,68.851,14.408,80.851,35.932c23.681,42.476-15.563,115.854-50.186,180.593
								c-27.254,50.959-52.996,99.093-43.354,123.587c2.741,6.964,8.099,11.726,16.379,14.56
								c9.342,3.198,14.032,6.857,14.339,11.189c0.722,10.174-22.933,22.226-52.879,37.484
								c-46.363,23.623-104.063,53.021-101.854,90.571c0.896,15.216,11.942,30.822,32.834,46.386
								c23.614,17.591,60.623,35.754,109.999,53.984c42.071,15.532,74.102,32.232,95.203,49.637
								c19.002,15.672,29.7,32.385,31.799,49.674c6.357,52.365-65.008,100.693-117.116,135.981
								c-29.182,19.762-52.231,35.371-49.535,44.004c1.813,5.805,15.692,8.496,42.428,8.223l0.008,0.75
								C469.552,692.185,468.331,692.19,467.141,692.19z"/>
						</g>
					</g>
					<g>
						<g>
							<path style="fill:#E08CA2;" d="M470.02,701.162c-24.518,0-36.883-2.83-38.825-8.854c-3.009-9.328,18.723-24.641,48.8-45.833
								c51.06-35.978,120.987-85.25,114.402-138.378c-2.153-17.378-12.624-34.209-31.12-50.025
								c-20.629-17.641-51.89-34.586-92.913-50.365c-48.418-18.622-84.741-37.182-107.958-55.163
								c-20.675-16.012-31.638-32.111-32.585-47.852c-2.338-38.865,54.525-69.003,100.215-93.219
								c27.979-14.829,52.145-27.636,51.427-37.526c-0.296-4.075-4.732-7.586-13.564-10.735c-8.078-2.88-13.584-7.902-16.364-14.925
								c-9.981-25.213,15.434-74.703,42.341-127.098c34.129-66.456,72.811-141.779,48.545-184.613
								c-11.924-21.046-37.466-32.572-78.088-35.236l0.049-0.748c40.893,2.682,66.634,14.331,78.691,35.614
								c24.466,43.186-14.315,118.701-48.53,185.325c-26.827,52.24-52.167,101.582-42.31,126.479
								c2.735,6.909,7.942,11.651,15.919,14.495c9.142,3.259,13.741,6.984,14.061,11.387c0.753,10.377-22.449,22.674-51.824,38.243
								c-45.5,24.115-102.127,54.128-99.817,92.511c0.933,15.516,11.799,31.431,32.296,47.304
								c23.16,17.936,59.418,36.46,107.768,55.057c41.103,15.81,72.436,32.798,93.132,50.494
								c18.643,15.942,29.199,32.933,31.377,50.504c6.64,53.573-63.501,102.996-114.716,139.083
								c-28.693,20.217-51.357,36.186-48.518,44.989c1.89,5.859,15.482,8.574,41.561,8.316l0.008,0.75
								C472.3,701.156,471.145,701.162,470.02,701.162z"/>
						</g>
					</g>
					<g>
						<g>
							<path style="fill:#A6689C;" d="M472.836,710.313c-23.982,0-36.132-2.856-38.155-8.934
								c-3.161-9.493,18.208-25.161,47.784-46.846c50.192-36.799,118.931-87.196,112.056-141.574
								c-2.234-17.667-12.569-34.781-30.719-50.868c-20.23-17.933-50.805-35.165-90.873-51.22
								c-47.412-18.996-82.999-37.924-105.771-56.258c-20.281-16.327-31.064-32.737-32.05-48.776
								c-2.441-39.713,53.364-70.479,98.204-95.201c27.447-15.132,51.152-28.201,50.402-38.306
								c-0.309-4.152-4.659-7.731-13.302-10.941c-7.782-2.891-13.132-7.887-15.901-14.851
								c-10.185-25.612,14.828-76.337,41.31-130.042c33.73-68.399,71.958-145.924,46.907-189.468
								c-11.961-20.792-36.806-32.206-75.952-34.893l0.051-0.748c39.416,2.706,64.456,14.243,76.552,35.268
								c25.25,43.891-13.073,121.607-46.885,190.174c-26.406,53.55-51.348,104.13-41.286,129.432
								c2.726,6.854,7.785,11.572,15.467,14.425c8.945,3.323,13.455,7.114,13.788,11.589c0.785,10.585-21.974,23.132-50.788,39.018
								c-44.655,24.62-100.23,55.259-97.818,94.498c0.972,15.819,11.662,32.049,31.771,48.238
								c22.715,18.287,58.238,37.177,105.581,56.147c40.148,16.087,70.796,33.364,91.091,51.353
								c18.29,16.212,28.708,33.483,30.966,51.335c6.931,54.816-62.015,105.365-112.356,142.274
								c-28.217,20.688-50.504,37.028-47.517,46.003c1.969,5.913,15.301,8.658,40.712,8.404l0.008,0.75
								C474.997,710.308,473.903,710.313,472.836,710.313z"/>
						</g>
					</g>
					<g>
						<g>
							<path style="fill:#D81610;" d="M475.597,719.661c-23.449,0-35.388-2.879-37.494-9.009
								c-3.319-9.661,17.699-25.695,46.788-47.889c49.344-37.646,116.923-89.204,109.75-144.868
								c-2.314-17.955-12.518-35.354-30.328-51.714c-19.838-18.224-49.736-35.743-88.865-52.075
								c-46.425-19.376-81.29-38.679-103.628-57.37c-19.895-16.647-30.503-33.375-31.528-49.717
								c-2.546-40.582,52.223-71.994,96.231-97.234c26.926-15.443,50.181-28.78,49.396-39.105
								c-0.321-4.23-4.587-7.877-13.043-11.149c-7.495-2.9-12.692-7.871-15.446-14.773c-10.382-26.015,14.234-78.006,40.296-133.049
								c33.333-70.4,71.113-150.193,45.28-194.442c-11.981-20.523-36.135-31.816-73.842-34.526l0.055-0.748
								c37.972,2.729,62.319,14.144,74.434,34.896c26.032,44.591-11.838,124.574-45.25,195.142
								c-25.989,54.891-50.538,106.739-40.277,132.45c2.712,6.795,7.625,11.49,15.021,14.352c8.752,3.387,13.174,7.244,13.52,11.792
								c0.819,10.797-21.506,23.602-49.772,39.813c-43.828,25.137-98.373,56.419-95.855,96.537
								c1.012,16.129,11.53,32.678,31.261,49.188c22.279,18.644,57.08,37.906,103.435,57.254
								c39.209,16.364,69.182,33.932,89.084,52.214c17.943,16.483,28.227,34.036,30.563,52.171
								c7.229,56.094-60.549,107.804-110.038,145.56c-27.755,21.175-49.677,37.9-46.534,47.049
								c2.049,5.962,15.082,8.75,39.872,8.487l0.008,0.75C477.64,719.656,476.605,719.661,475.597,719.661z"/>
						</g>
					</g>
					<g>
						<g>
							<path style="fill:#D65024;" d="M478.296,729.191c-22.913,0-34.641-2.9-36.829-9.077c-3.482-9.828,17.19-26.24,45.805-48.956
								c48.515-38.516,114.959-91.265,107.482-148.252c-2.393-18.246-12.469-35.932-29.946-52.566
								c-19.454-18.517-48.69-36.327-86.896-52.938c-45.453-19.761-79.609-39.44-101.519-58.494
								c-19.516-16.973-29.953-34.02-31.019-50.669c-2.655-41.475,51.1-73.549,94.292-99.321
								c26.418-15.763,49.232-29.376,48.414-39.927c-0.334-4.31-4.518-8.025-12.789-11.36c-7.217-2.909-12.264-7.852-14.999-14.692
								c-10.567-26.42,13.656-79.703,39.301-136.115c32.94-72.459,70.275-154.585,43.666-199.533
								c-11.982-20.238-35.452-31.404-71.752-34.134l0.057-0.748c36.563,2.75,60.226,14.035,72.341,34.5
								c26.809,45.284-10.612,127.6-43.628,200.225c-25.577,56.262-49.736,109.403-39.288,135.526
								c2.694,6.736,7.465,11.406,14.584,14.275c8.561,3.451,12.897,7.376,13.256,11.997c0.853,11.015-21.049,24.084-48.777,40.628
								c-43.018,25.668-96.555,57.612-93.929,98.628c1.053,16.442,11.403,33.315,30.762,50.151
								c21.852,19.004,55.943,38.643,101.326,58.373c38.287,16.646,67.597,34.504,87.114,53.081
								c17.605,16.757,27.757,34.593,30.173,53.013c7.532,57.408-59.103,110.31-107.76,148.937
								c-27.303,21.676-48.867,38.796-45.563,48.119c2.129,6.007,14.916,8.805,39.047,8.563l0.008,0.75
								C480.232,729.187,479.253,729.191,478.296,729.191z"/>
						</g>
					</g>
					<g>
						<g>
							<path style="fill:#803E22;" d="M480.95,738.924c-22.386,0-33.905-2.921-36.178-9.141
								c-3.653-9.998,16.687-26.802,44.838-50.059c47.706-39.411,113.041-93.387,105.256-151.734
								c-2.474-18.537-12.423-36.511-29.572-53.422c-19.076-18.81-47.66-36.911-84.958-53.801
								c-44.5-20.149-77.961-40.214-99.452-59.635c-19.146-17.303-29.415-34.676-30.522-51.638
								c-2.767-42.389,49.995-75.142,92.39-101.459c25.918-16.089,48.302-29.984,47.448-40.767
								c-0.348-4.389-4.45-8.175-12.542-11.573c-6.947-2.917-11.847-7.832-14.56-14.609c-10.743-26.83,13.09-81.436,38.322-139.248
								c32.551-74.578,69.443-159.105,42.064-204.747c-11.964-19.941-34.758-30.972-69.685-33.721l0.059-0.748
								c35.186,2.77,58.172,13.919,70.269,34.083c27.579,45.973-9.396,130.689-42.019,205.433
								c-25.168,57.664-48.94,112.13-38.314,138.668c2.673,6.676,7.303,11.32,14.154,14.196c8.375,3.517,12.627,7.509,12.998,12.205
								c0.89,11.238-20.597,24.576-47.8,41.463c-42.225,26.212-94.774,58.834-92.037,100.773
								c1.094,16.761,11.281,33.963,30.277,51.13c21.434,19.369,54.829,39.391,99.258,59.508
								c37.38,16.927,66.037,35.078,85.176,53.95c17.27,17.031,27.294,35.151,29.789,53.857
								c7.84,58.759-57.681,112.888-105.521,152.411c-26.863,22.193-48.082,39.723-44.61,49.224
								c2.209,6.047,14.708,8.855,38.232,8.633l0.008,0.75C482.777,738.919,481.854,738.924,480.95,738.924z"/>
						</g>
					</g>
					<g>
						<g>
							<path style="fill:#AC523E;" d="M483.543,748.856c-21.857,0-33.168-2.938-35.524-9.195
								c-3.829-10.17,16.185-27.377,43.885-51.191c46.913-40.334,111.163-95.572,103.066-155.317
								c-2.553-18.83-12.379-37.093-29.207-54.281c-18.705-19.104-46.648-37.497-83.055-54.667
								c-43.563-20.545-76.341-40.999-97.42-60.793c-18.783-17.638-28.889-35.342-30.038-52.622
								c-2.88-43.328,48.91-76.777,90.525-103.653c25.428-16.423,47.389-30.605,46.499-41.622
								c-0.361-4.469-4.384-8.325-12.299-11.786c-16.471-7.204-20.777-25.186-13.556-56.588
								c6.417-27.898,21.17-63.107,36.79-100.384c32.162-76.755,68.616-163.751,40.474-210.074
								c-11.927-19.631-34.053-30.518-67.643-33.284l0.061-0.747c33.848,2.786,56.163,13.791,68.223,33.642
								c28.341,46.65-8.19,133.833-40.422,210.753c-15.608,37.246-30.35,72.427-36.751,100.262
								c-7.128,30.99-2.957,48.699,13.125,55.733c8.191,3.583,12.36,7.643,12.746,12.413c0.926,11.464-20.153,25.078-46.84,42.313
								c-41.45,26.77-93.036,60.086-90.184,102.974c1.136,17.085,11.163,34.622,29.803,52.125
								c21.023,19.74,53.735,40.15,97.227,60.662c36.487,17.208,64.503,35.652,83.27,54.82
								c16.944,17.307,26.841,35.712,29.415,54.705c8.152,60.148-56.276,115.54-103.319,155.985
								c-26.436,22.727-47.316,40.68-43.672,50.359c2.291,6.083,14.558,8.928,37.43,8.695l0.008,0.75
								C485.27,748.851,484.398,748.856,483.543,748.856z"/>
						</g>
					</g>
					<g>
						<g>
							<path style="fill:#F44EB8;" d="M486.086,758.983c-21.328,0-32.431-2.951-34.87-9.241
								c-4.012-10.342,15.684-27.963,42.942-52.352c46.139-41.28,109.326-97.814,100.913-158.996
								c-5.542-40.302-42.563-77.541-110.033-110.681c-42.645-20.945-74.751-41.795-95.429-61.968
								c-18.427-17.977-28.374-36.018-29.565-53.62c-2.996-44.293,47.844-78.457,88.695-105.907
								c24.949-16.766,46.497-31.245,45.57-42.503c-0.374-4.55-4.318-8.476-12.059-12.002c-16.149-7.357-20.38-25.702-13.314-57.735
								c6.278-28.463,20.728-64.385,36.026-102.416c31.774-78.992,67.789-168.523,38.895-215.52
								c-11.872-19.309-33.339-30.047-65.628-32.827l0.065-0.747c32.542,2.801,54.197,13.655,66.202,33.181
								c29.092,47.319-6.997,137.036-38.839,216.192c-15.286,38.001-29.725,73.895-35.989,102.297
								c-6.978,31.628-2.881,49.706,12.892,56.891c8.01,3.649,12.097,7.778,12.496,12.623c0.962,11.697-19.718,25.593-45.9,43.187
								c-40.69,27.343-91.333,61.373-88.365,105.234c1.178,17.413,11.05,35.29,29.341,53.135
								c20.621,20.117,52.663,40.92,95.235,61.83c35.611,17.491,62.998,36.23,81.399,55.695
								c16.622,17.584,26.396,36.275,29.047,55.558c8.468,61.576-54.893,118.265-101.156,159.656
								c-26.017,23.278-46.566,41.664-42.743,51.522c2.371,6.113,14.36,8.956,36.64,8.749l0.008,0.75
								C487.722,758.979,486.896,758.983,486.086,758.983z"/>
						</g>
					</g>
					<g>
						<g>
							<path style="fill:#984620;" d="M488.576,769.326c-20.802,0-31.697-2.964-34.22-9.28
								c-4.199-10.515,15.186-28.565,42.015-53.548c45.379-42.255,107.527-100.125,98.795-162.782
								c-5.701-40.908-41.985-78.733-107.847-112.423c-41.74-21.352-73.188-42.602-93.471-63.158
								c-18.078-18.322-27.869-36.704-29.102-54.636c-3.115-45.282,46.795-80.177,86.898-108.216
								c24.48-17.116,45.622-31.898,44.658-43.402c-0.388-4.632-4.256-8.629-11.826-12.221
								c-15.832-7.512-19.987-26.228-13.074-58.902c6.145-29.039,20.296-65.686,35.279-104.486
								c31.392-81.292,66.973-173.43,37.34-221.091c-11.8-18.978-32.615-29.56-63.638-32.353l0.066-0.747
								c30.839,2.776,52.441,13.779,64.208,32.704c29.83,47.979-5.822,140.302-37.277,221.757
								c-14.972,38.771-29.113,75.391-35.244,104.371c-6.83,32.279-2.807,50.73,12.662,58.069
								c7.832,3.716,11.839,7.915,12.251,12.836c1,11.934-19.289,26.12-44.976,44.079c-39.948,27.931-89.665,62.692-86.579,107.55
								c1.221,17.748,10.94,35.97,28.888,54.161c20.227,20.5,51.61,41.702,93.279,63.017c34.75,17.776,61.519,36.81,79.562,56.573
								c16.308,17.862,25.959,36.843,28.687,56.414c8.785,63.044-53.527,121.067-99.027,163.435
								c-25.609,23.847-45.838,42.683-41.829,52.721c2.451,6.14,14.18,9.02,35.859,8.797l0.008,0.75
								C490.125,769.322,489.344,769.326,488.576,769.326z"/>
						</g>
					</g>
					<g>
						<g>
							<path style="fill:#EC6402;" d="M491.023,779.881c-20.284,0-30.975-2.974-33.579-9.313
								c-4.393-10.69,14.69-29.183,41.101-54.778c44.635-43.256,105.764-102.497,96.712-166.671
								c-5.856-41.517-41.418-79.929-105.699-114.171c-40.853-21.763-71.655-43.419-91.55-64.365
								c-17.735-18.673-27.375-37.401-28.651-55.666c-3.234-46.297,45.764-81.944,85.134-110.586
								c24.021-17.476,44.766-32.568,43.764-44.324c-0.401-4.714-4.195-8.784-11.598-12.441
								c-33.882-16.743-8.123-86.233,21.704-166.697c31.008-83.652,66.153-178.465,35.796-226.779
								c-11.71-18.636-31.884-29.058-61.676-31.86l0.07-0.747c29.622,2.787,50.563,13.624,62.24,32.208
								c30.555,48.627-4.659,143.624-35.728,227.438C494.4,20.685,480.551,58.048,474.551,87.619
								c-6.685,32.943-2.732,51.778,12.438,59.274c7.658,3.784,11.587,8.052,12.014,13.05c1.037,12.177-18.869,26.659-44.071,44.994
								c-39.22,28.534-88.031,64.044-84.826,109.928c1.263,18.086,10.834,36.658,28.447,55.201
								c19.839,20.888,50.578,42.495,91.36,64.22c33.905,18.062,60.067,37.392,77.758,57.454
								c15.997,18.142,25.528,37.411,28.33,57.274c9.105,64.551-52.183,123.945-96.933,167.314
								c-25.213,24.436-45.128,43.735-40.929,53.955c2.531,6.159,13.976,9.039,35.089,8.836l0.008,0.75
								C492.485,779.877,491.748,779.881,491.023,779.881z"/>
						</g>
					</g>
					<g>
						<g>
							<path style="fill:#F88C06;" d="M493.409,790.649c-19.761,0-30.242-2.979-32.928-9.333
								c-4.592-10.863,14.194-29.813,40.195-56.038c43.907-44.286,104.039-104.939,94.667-170.672
								c-6.006-42.127-40.858-81.132-103.586-115.93c-39.983-22.181-70.151-44.248-89.668-65.59
								c-17.4-19.029-26.892-38.109-28.21-56.713c-3.354-47.34,44.751-83.755,83.404-113.015
								c24.542-18.578,43.927-33.253,42.888-45.265c-0.416-4.797-4.136-8.939-11.373-12.664
								c-33.219-17.095-7.996-87.987,21.209-170.073c30.625-86.074,65.335-183.633,34.269-232.588
								c-11.444-18.033-31.544-28.582-59.743-31.355l0.074-0.746c28.439,2.797,48.728,13.462,60.302,31.699
								c31.263,49.264-3.513,147.006-34.194,233.242c-14.359,40.358-27.922,78.478-33.792,108.651
								c-6.541,33.621-2.658,52.847,12.22,60.503c7.484,3.852,11.337,8.191,11.776,13.266c1.075,12.426-18.455,27.211-43.182,45.928
								c-38.509,29.151-86.435,65.43-83.109,112.364c1.306,18.43,10.732,37.358,28.015,56.26
								c19.461,21.281,49.565,43.299,89.478,65.439c33.077,18.35,58.643,37.977,75.986,58.34
								c15.691,18.424,25.106,37.985,27.98,58.141c9.424,66.102-50.86,126.907-94.877,171.305
								c-24.825,25.04-44.434,44.818-40.037,55.219c2.608,6.173,13.852,9.082,34.329,8.864l0.008,0.75
								C494.8,790.646,494.097,790.649,493.409,790.649z"/>
						</g>
					</g>
					<g>
						<g>
							<path style="fill:#965C84;" d="M495.769,801.64c-19.247,0-29.527-2.984-32.293-9.349
								c-4.797-11.039,13.701-30.46,39.304-57.339c43.19-45.344,102.342-107.445,92.651-174.776
								c-6.151-42.74-40.306-82.338-101.513-117.694c-39.129-22.604-68.676-45.089-87.82-66.831
								c-17.072-19.39-26.418-38.828-27.779-57.775c-3.476-48.408,43.753-85.612,81.702-115.506
								c24.083-18.97,43.106-33.954,42.026-46.23c-0.429-4.881-4.076-9.096-11.151-12.888
								c-32.571-17.454-7.874-89.776,20.724-173.518c30.242-88.559,64.52-188.934,32.762-238.519
								c-11.324-17.681-30.783-28.056-57.837-30.836l0.076-0.746c27.293,2.806,46.939,13.295,58.393,31.178
								c31.953,49.89-2.387,150.447-32.684,239.166c-14.062,41.177-27.344,80.07-33.087,110.858
								c-6.4,34.313-2.585,53.937,12.007,61.756c7.316,3.921,11.093,8.331,11.545,13.483c1.114,12.68-18.049,27.775-42.309,46.886
								c-37.811,29.784-84.867,66.851-81.419,114.863c1.349,18.779,10.633,38.069,27.595,57.333
								c19.09,21.681,48.573,44.114,87.632,66.678c32.264,18.637,57.244,38.564,74.247,59.227
								c15.393,18.707,24.69,38.56,27.633,59.011c9.743,67.691-49.554,129.944-92.851,175.4
								c-24.447,25.666-43.758,45.939-39.159,56.522c2.686,6.183,13.675,9.103,33.579,8.888l0.008,0.75
								C497.08,801.637,496.418,801.64,495.769,801.64z"/>
						</g>
					</g>
					<g>
						<g>
							<path style="fill:#F6320A;" d="M498.068,812.859c-18.736,0-28.813-2.986-31.656-9.355
								c-5.007-11.214,13.211-31.121,38.424-58.674c42.489-46.431,100.68-110.02,90.673-178.993
								c-6.291-43.356-39.759-83.552-99.476-119.472c-38.291-23.032-67.227-45.94-86.007-68.089
								c-16.751-19.756-25.956-39.558-27.358-58.854c-3.599-49.504,42.775-87.517,80.037-118.061
								c23.633-19.372,42.3-34.674,41.183-47.218c-0.442-4.964-4.02-9.254-10.936-13.114
								c-31.935-17.822-7.754-91.604,20.247-177.037c29.859-91.105,63.703-194.367,31.274-244.567
								c-11.19-17.323-30.021-27.519-55.965-30.305l0.08-0.746c26.181,2.811,45.195,13.121,56.515,30.643
								c32.623,50.5-1.28,153.942-31.192,245.207c-13.768,42.012-26.774,81.695-32.392,113.111
								c-6.263,35.02-2.514,55.05,11.799,63.037c7.149,3.99,10.852,8.472,11.317,13.703c1.152,12.939-17.65,28.352-41.454,47.865
								c-37.128,30.434-83.335,68.31-79.765,117.427c1.391,19.135,10.536,38.791,27.182,58.424
								c18.727,22.086,47.602,44.94,85.822,67.931c31.467,18.928,55.873,39.154,72.541,60.12
								c15.098,18.992,24.28,39.141,27.29,59.887c10.059,69.325-48.271,133.065-90.861,179.607
								c-24.079,26.313-43.099,47.097-38.293,57.861c2.762,6.187,13.51,9.079,32.837,8.901l0.008,0.75
								C499.309,812.856,498.683,812.859,498.068,812.859z"/>
						</g>
					</g>
				</g>
			</g>
		</g>
	</g>
</g>
<g id="Layer_1">
</g>
</svg>
