<?xml version="1.0" encoding="utf-8"?>
<!-- Generator: Adobe Illustrator 27.5.0, SVG Export Plug-In . SVG Version: 6.00 Build 0)  -->
<svg version="1.1" xmlns="http://www.w3.org/2000/svg" xmlns:xlink="http://www.w3.org/1999/xlink" x="0px" y="0px"
	 viewBox="0 0 800 500" style="enable-background:new 0 0 800 500;" xml:space="preserve">
<g id="_x32_5">
	<g>
		<g>
			<defs>
				<rect id="SVGID_1_" y="0.001" width="800" height="499.999"/>
			</defs>
			<use xlink:href="#SVGID_1_"  style="overflow:visible;fill:#000422;"/>
			<clipPath id="SVGID_00000013194072205463717040000005185013257266337979_">
				<use xlink:href="#SVGID_1_"  style="overflow:visible;"/>
			</clipPath>
			<g style="clip-path:url(#SVGID_00000013194072205463717040000005185013257266337979_);">
				<g>
					<g>
						<g>
							
								<linearGradient id="SVGID_00000148623855073435240140000011201332171690144914_" gradientUnits="userSpaceOnUse" x1="52.4722" y1="333.8174" x2="621.6775" y2="333.8174">
								<stop  offset="0" style="stop-color:#FF25B6"/>
								<stop  offset="0.013" style="stop-color:#F720C0"/>
								<stop  offset="0.0526" style="stop-color:#E112DB"/>
								<stop  offset="0.093" style="stop-color:#D208EE"/>
								<stop  offset="0.1345" style="stop-color:#C902F9"/>
								<stop  offset="0.1787" style="stop-color:#C600FD"/>
								<stop  offset="0.475" style="stop-color:#432AF3"/>
								<stop  offset="0.6457" style="stop-color:#2747ED"/>
								<stop  offset="1" style="stop-color:#000422"/>
							</linearGradient>
							<path style="fill:url(#SVGID_00000148623855073435240140000011201332171690144914_);" d="M508.612,658.241
								c-4.81,0.001-8.39-1.215-10.773-3.639c-14.686-14.93,18.955-73.735,54.571-135.993
								c39.47-68.995,84.206-147.195,62.484-168.229c-19.594-18.975-89.831,9.17-214.716,86.046
								c-93.355,57.465-154.136,85.825-184.217,85.827c-7.845,0-13.6-1.928-17.302-5.772
								c-23.087-23.968,40.362-118.9,91.344-195.181c34.821-52.1,64.895-97.095,57.375-104.074
								c-5.784-5.367-34.277,12.106-87.113,53.419c-69.771,54.554-117.43,73.462-145.699,57.805
								c-18.612-10.308-28.581-35.765-30.476-77.824c-1.649-36.585,3.016-81.112,7.131-120.398
								C97.4,71.247,102.736,20.309,86.423,11.67c-7.101-3.759-17.995,0.698-33.306,13.626l-0.646-0.764
								C68.131,11.31,79.393,6.817,86.891,10.787c16.91,8.954,11.542,60.204,5.325,119.546
								c-4.112,39.251-8.772,83.738-7.127,120.249c1.878,41.683,11.679,66.869,29.961,76.995
								c13.119,7.265,31.059,6.753,53.319-1.526c24.565-9.136,55.276-28.041,91.279-56.191c70.982-55.501,84.45-57.037,88.41-53.365
								c8.144,7.56-20.703,50.72-57.224,105.363c-50.783,75.982-113.984,170.544-91.456,193.931
								c8.152,8.464,27.495,7.004,57.487-4.335c33.576-12.695,81.617-38.224,142.787-75.878
								c125.334-77.15,195.963-105.252,215.937-85.912c22.279,21.574-20.725,96.746-62.313,169.443
								c-35.423,61.92-68.881,120.406-54.726,134.796c7.981,8.114,30.579,1.758,69.08-19.433l0.482,0.877
								C540.3,650.652,520.625,658.241,508.612,658.241z"/>
						</g>
					</g>
					<g>
						<g>
							
								<linearGradient id="SVGID_00000114762716887045903090000001652794441671026339_" gradientUnits="userSpaceOnUse" x1="51.23" y1="330.1429" x2="625.5207" y2="330.1429">
								<stop  offset="0" style="stop-color:#FF25B6"/>
								<stop  offset="0.013" style="stop-color:#F720C0"/>
								<stop  offset="0.0526" style="stop-color:#E112DB"/>
								<stop  offset="0.093" style="stop-color:#D208EE"/>
								<stop  offset="0.1345" style="stop-color:#C902F9"/>
								<stop  offset="0.1787" style="stop-color:#C600FD"/>
								<stop  offset="0.475" style="stop-color:#432AF3"/>
								<stop  offset="0.6457" style="stop-color:#2747ED"/>
								<stop  offset="1" style="stop-color:#000422"/>
							</linearGradient>
							<path style="fill:url(#SVGID_00000114762716887045903090000001652794441671026339_);" d="M519.074,660.007
								c-5.053,0.001-8.818-1.277-11.338-3.824c-15.029-15.2,17.381-73.615,51.694-135.46
								c38.047-68.573,81.17-146.296,58.88-167.728c-20.038-19.268-89.479,7.623-212.295,82.212
								c-90.975,55.249-150.715,82.528-181.018,82.531c-8.274,0.001-14.349-2.032-18.271-6.084
								c-23.633-24.415,37.809-118.534,87.18-194.16c33.721-51.654,62.843-96.264,55.122-103.363
								c-5.917-5.447-33.98,11.534-85.78,51.908c-67.869,52.899-114.754,71.086-143.343,55.597
								c-19.15-10.376-29.832-36.038-32.655-78.453c-2.456-36.895,1.341-81.785,4.691-121.392
								c5.02-59.346,9.354-110.598-7.367-119.24c-7.16-3.7-17.853,0.599-32.699,13.136l-0.646-0.764
								C66.42,2.097,77.479-2.242,85.034,1.663c17.315,8.948,12.955,60.509,7.905,120.212c-3.347,39.571-7.141,84.421-4.689,121.241
								c2.799,42.045,13.31,67.441,32.133,77.641c13.276,7.193,31.133,6.802,53.073-1.166c24.178-8.78,54.182-27.063,89.179-54.341
								c69.6-54.249,83.026-55.575,87.072-51.855c8.344,7.673-19.593,50.467-54.962,104.646
								c-49.176,75.328-110.376,169.076-87.299,192.918c8.336,8.61,27.612,7.502,57.292-3.303
								c33.219-12.092,80.577-36.756,140.758-73.305c123.258-74.855,193.096-101.705,213.508-82.077
								c22.844,21.965-18.609,96.679-58.698,168.933c-34.127,61.508-66.36,119.605-51.857,134.273
								c8.155,8.248,30.55,2.303,68.457-18.172l0.475,0.879C550.378,652.771,531.093,660.006,519.074,660.007z"/>
						</g>
					</g>
					<g>
						<g>
							
								<linearGradient id="SVGID_00000090256331067199306370000016916045032175838121_" gradientUnits="userSpaceOnUse" x1="49.8003" y1="326.536" x2="629.4279" y2="326.536">
								<stop  offset="0" style="stop-color:#FF25B6"/>
								<stop  offset="0.013" style="stop-color:#F720C0"/>
								<stop  offset="0.0526" style="stop-color:#E112DB"/>
								<stop  offset="0.093" style="stop-color:#D208EE"/>
								<stop  offset="0.1345" style="stop-color:#C902F9"/>
								<stop  offset="0.1787" style="stop-color:#C600FD"/>
								<stop  offset="0.475" style="stop-color:#432AF3"/>
								<stop  offset="0.6457" style="stop-color:#2747ED"/>
								<stop  offset="1" style="stop-color:#000422"/>
							</linearGradient>
							<path style="fill:url(#SVGID_00000090256331067199306370000016916045032175838121_);" d="M529.567,661.981
								c-5.306,0-9.268-1.342-11.929-4.018c-15.383-15.476,15.81-73.526,48.833-134.986c18.925-35.219,38.493-71.638,50.444-102.019
								c13.452-34.199,15.036-55.553,4.843-65.283c-20.492-19.558-89.165,6.094-209.947,78.42
								c-88.625,53.069-147.331,79.285-177.839,79.288c-8.723,0.001-15.136-2.141-19.29-6.411
								c-24.194-24.872,35.266-118.218,83.043-193.223c32.632-51.229,60.814-95.473,52.886-102.693
								c-6.062-5.523-33.696,10.97-84.477,50.421c-65.993,51.268-112.108,68.745-140.99,53.442
								c-19.7-10.441-31.107-36.321-34.872-79.118c-3.275-37.227-0.355-82.511,2.221-122.465
								C96.346,53.591,99.672,1.994,82.537-6.646c-7.202-3.631-17.701,0.509-32.091,12.659L49.8,5.25
								C64.53-7.188,75.386-11.371,82.987-7.539c17.726,8.937,14.379,60.84,10.505,120.939
								c-2.574,39.918-5.491,85.163-2.223,122.313c3.733,42.433,14.967,68.052,34.344,78.322
								c13.424,7.116,31.193,6.837,52.811-0.827c23.791-8.436,53.095-26.107,87.098-52.521
								c68.24-53.014,81.628-54.138,85.764-50.372c8.549,7.787-18.487,50.232-52.717,103.97
								c-47.587,74.708-106.811,167.684-83.169,191.988c8.524,8.763,27.742,7.999,57.12-2.275
								c32.872-11.497,79.564-35.305,138.778-70.762c121.225-72.591,190.293-98.196,211.151-78.286
								c23.427,22.362-16.492,96.654-55.097,168.499c-32.844,61.124-63.865,118.857-49.004,133.808
								c8.331,8.383,30.529,2.848,67.857-16.924l0.469,0.884C560.475,655.095,541.581,661.981,529.567,661.981z"/>
						</g>
					</g>
					<g>
						<g>
							
								<linearGradient id="SVGID_00000083057557731450199290000010451996784750632122_" gradientUnits="userSpaceOnUse" x1="48.1831" y1="322.9966" x2="633.406" y2="322.9966">
								<stop  offset="0" style="stop-color:#FF25B6"/>
								<stop  offset="0.013" style="stop-color:#F720C0"/>
								<stop  offset="0.0526" style="stop-color:#E112DB"/>
								<stop  offset="0.093" style="stop-color:#D208EE"/>
								<stop  offset="0.1345" style="stop-color:#C902F9"/>
								<stop  offset="0.1787" style="stop-color:#C600FD"/>
								<stop  offset="0.475" style="stop-color:#432AF3"/>
								<stop  offset="0.6457" style="stop-color:#2747ED"/>
								<stop  offset="1" style="stop-color:#000422"/>
							</linearGradient>
							<path style="fill:url(#SVGID_00000083057557731450199290000010451996784750632122_);" d="M540.099,664.168
								c-5.568,0-9.736-1.41-12.546-4.221c-15.747-15.756,14.239-73.467,45.985-134.567c18.203-35.034,37.026-71.261,48.336-101.549
								c12.732-34.097,13.834-55.491,3.369-65.407c-20.943-19.846-88.876,4.575-207.671,74.669
								c-112.159,66.179-175.96,88.858-195.044,69.341c-24.772-25.337,32.728-117.951,78.929-192.369
								c31.557-50.829,58.811-94.727,50.669-102.069c-6.211-5.596-33.427,10.416-83.207,48.957
								c-64.141,49.658-109.488,66.452-138.636,51.346c-20.263-10.503-32.408-36.611-37.128-79.818
								c-4.106-37.582-2.074-83.293-0.282-123.622C95.548,44.68,97.857-7.292,80.307-15.921
								c-7.244-3.563-17.541,0.428-31.478,12.196l-0.646-0.764c14.274-12.053,24.927-16.088,32.565-12.33
								c18.138,8.918,15.814,61.192,13.125,121.721c-1.791,40.294-3.82,85.963,0.277,123.469
								c4.681,42.848,16.651,68.702,36.594,79.038c13.564,7.031,31.237,6.857,52.529-0.512
								c23.403-8.101,52.013-25.171,85.034-50.736c50.923-39.425,77.769-54.968,84.488-48.909
								c8.763,7.902-17.385,50.018-50.489,103.339c-46.017,74.121-103.287,166.366-79.063,191.143
								c8.719,8.916,27.887,8.493,56.971-1.255c32.539-10.906,78.582-33.868,136.85-68.248
								c119.229-70.351,187.551-94.729,208.867-74.533c24.028,22.768-14.371,96.672-51.506,168.143
								c-31.573,60.766-61.394,118.161-46.166,133.399c8.513,8.517,30.521,3.386,67.279-15.688l0.461,0.889
								C570.595,657.623,552.097,664.167,540.099,664.168z"/>
						</g>
					</g>
					<g>
						<g>
							
								<linearGradient id="SVGID_00000107569593136646931730000003219033740043570851_" gradientUnits="userSpaceOnUse" x1="46.3823" y1="319.5278" x2="637.4507" y2="319.5278">
								<stop  offset="0" style="stop-color:#FF25B6"/>
								<stop  offset="0.013" style="stop-color:#F720C0"/>
								<stop  offset="0.0526" style="stop-color:#E112DB"/>
								<stop  offset="0.093" style="stop-color:#D208EE"/>
								<stop  offset="0.1345" style="stop-color:#C902F9"/>
								<stop  offset="0.1787" style="stop-color:#C600FD"/>
								<stop  offset="0.475" style="stop-color:#432AF3"/>
								<stop  offset="0.6457" style="stop-color:#2747ED"/>
								<stop  offset="1" style="stop-color:#000422"/>
							</linearGradient>
							<path style="fill:url(#SVGID_00000107569593136646931730000003219033740043570851_);" d="M550.676,666.574
								c-5.846,0-10.228-1.48-13.194-4.433c-16.121-16.042,12.668-73.44,43.148-134.209c17.488-34.866,35.571-70.919,46.243-101.127
								c12.015-34.01,12.631-55.454,1.885-65.56c-21.412-20.139-88.624,3.071-205.468,70.96
								c-110.39,64.136-173.527,85.668-193.023,65.834c-25.368-25.812,30.193-117.737,74.838-191.6
								c30.494-50.452,56.83-94.025,48.467-101.489c-6.358-5.67-33.168,9.87-81.965,47.514
								c-47.404,36.57-84.546,54.652-112.544,54.654c-8.805,0-16.703-1.788-23.734-5.352c-20.836-10.561-33.73-36.909-39.42-80.552
								c-4.949-37.96-3.817-84.127-2.818-124.859c1.487-60.647,2.771-113.022-15.197-121.637
								c-7.273-3.486-17.372,0.355-30.865,11.749l-0.646-0.764C60.21-25.97,70.66-29.857,78.325-26.182
								C96.877-17.289,95.585,35.387,94.09,96.38c-0.998,40.696-2.129,86.821,2.81,124.705c5.644,43.29,18.361,69.389,38.88,79.79
								c13.688,6.936,31.26,6.861,52.226-0.22c23.013-7.774,50.935-24.254,82.989-48.982c49.924-38.515,76.375-53.597,83.242-47.468
								c8.983,8.017-16.286,49.824-48.277,102.752c-44.465,73.567-99.804,165.125-74.98,190.382
								c8.913,9.07,28.038,8.989,56.843-0.238c32.216-10.321,77.625-32.445,134.965-65.76
								c117.277-68.139,184.876-91.304,206.655-70.823c24.65,23.181-12.242,96.732-47.919,167.863
								c-30.314,60.435-58.946,117.521-43.338,133.052c8.694,8.653,30.522,3.923,66.724-14.46l0.453,0.892
								C580.748,660.364,562.646,666.573,550.676,666.574z"/>
						</g>
					</g>
					<g>
						<g>
							
								<linearGradient id="SVGID_00000083056093189862745170000006743835283042752685_" gradientUnits="userSpaceOnUse" x1="44.3921" y1="316.1259" x2="641.57" y2="316.1259">
								<stop  offset="0" style="stop-color:#FF25B6"/>
								<stop  offset="0.013" style="stop-color:#F720C0"/>
								<stop  offset="0.0526" style="stop-color:#E112DB"/>
								<stop  offset="0.093" style="stop-color:#D208EE"/>
								<stop  offset="0.1345" style="stop-color:#C902F9"/>
								<stop  offset="0.1787" style="stop-color:#C600FD"/>
								<stop  offset="0.475" style="stop-color:#432AF3"/>
								<stop  offset="0.6457" style="stop-color:#2747ED"/>
								<stop  offset="1" style="stop-color:#000422"/>
							</linearGradient>
							<path style="fill:url(#SVGID_00000083056093189862745170000006743835283042752685_);" d="M561.299,669.198
								c-6.133,0-10.74-1.555-13.872-4.653c-16.506-16.334,11.099-73.446,40.324-133.911c16.779-34.715,34.13-70.611,44.165-100.755
								c11.3-33.94,11.428-55.445,0.392-65.744c-21.889-20.428-88.401,1.582-203.329,67.285
								c-81.754,46.739-137.381,69.861-168.397,69.863c-10.208,0-17.747-2.504-22.677-7.494
								c-25.98-26.294,27.664-117.57,70.768-190.913c29.443-50.098,54.872-93.364,46.28-100.951
								c-6.504-5.745-32.92,9.331-80.751,46.093c-60.511,46.507-104.316,61.981-133.92,47.309
								c-21.421-10.615-35.079-37.217-41.754-81.324c-5.806-38.363-5.586-85.018-5.392-126.181
								c0.288-61.147,0.536-113.955-17.851-122.547c-7.299-3.411-17.191,0.291-30.247,11.314l-0.646-0.764
								c13.384-11.302,23.627-15.049,31.315-11.457c18.966,8.863,18.716,61.968,18.427,123.458
								c-0.194,41.126-0.413,87.74,5.381,126.026c6.623,43.76,20.103,70.118,41.209,80.579c13.8,6.839,31.263,6.855,51.904,0.054
								c22.622-7.456,49.861-23.358,80.963-47.26c48.941-37.617,75.006-52.247,82.022-46.049
								c9.209,8.133-15.19,49.647-46.08,102.207c-42.931,73.047-96.359,163.957-70.919,189.703
								c9.113,9.225,28.203,9.482,56.737,0.77c31.906-9.742,76.697-31.041,133.13-63.304
								c115.358-65.95,182.255-87.912,204.508-67.147c25.293,23.603-10.105,96.839-44.339,167.665
								c-29.065,60.134-56.52,116.934-40.521,132.765c8.882,8.788,30.532,4.457,66.19-13.244l0.445,0.897
								C590.93,663.317,573.229,669.198,561.299,669.198z"/>
						</g>
					</g>
					<g>
						<g>
							
								<linearGradient id="SVGID_00000042005890881582154370000014349351481536494245_" gradientUnits="userSpaceOnUse" x1="42.2104" y1="312.7906" x2="645.7675" y2="312.7906">
								<stop  offset="0" style="stop-color:#FF25B6"/>
								<stop  offset="0.013" style="stop-color:#F720C0"/>
								<stop  offset="0.0526" style="stop-color:#E112DB"/>
								<stop  offset="0.093" style="stop-color:#D208EE"/>
								<stop  offset="0.1345" style="stop-color:#C902F9"/>
								<stop  offset="0.1787" style="stop-color:#C600FD"/>
								<stop  offset="0.475" style="stop-color:#432AF3"/>
								<stop  offset="0.6457" style="stop-color:#2747ED"/>
								<stop  offset="1" style="stop-color:#000422"/>
							</linearGradient>
							<path style="fill:url(#SVGID_00000042005890881582154370000014349351481536494245_);" d="M571.976,672.043
								c-6.433,0-11.273-1.631-14.578-4.883c-16.901-16.63,9.527-73.481,37.508-133.668c16.076-34.582,32.7-70.341,42.102-100.436
								c10.587-33.888,10.223-55.464-1.113-65.96c-22.375-20.715-88.207,0.104-201.26,63.654
								c-79.513,44.695-134.12,66.818-165.265,66.82c-10.753,0.001-18.706-2.635-23.926-7.89
								c-26.612-26.786,25.135-117.456,66.714-190.311c28.404-49.768,52.934-92.749,44.107-100.46
								c-6.661-5.816-32.688,8.8-79.568,44.692c-30.253,23.161-56.918,38.548-79.256,45.732
								c-20.564,6.613-38.161,6.493-52.298-0.357c-22.015-10.667-36.448-37.531-44.124-82.13
								c-6.676-38.789-7.383-85.963-8.006-127.583C92.088,17.578,91.29-35.695,72.483-44.259
								c-7.313-3.33-17.003,0.233-29.627,10.893l-0.646-0.764c12.949-10.935,22.985-14.547,30.688-11.04
								c19.383,8.826,20.185,62.393,21.114,124.417c0.623,41.584,1.329,88.717,7.992,127.429
								c7.618,44.257,21.871,70.883,43.574,81.4c13.9,6.733,31.245,6.837,51.557,0.305c22.228-7.148,48.792-22.481,78.955-45.573
								c47.972-36.729,73.657-50.919,80.833-44.652c9.443,8.249-14.096,49.492-43.897,101.709
								c-41.412,72.561-92.95,162.864-66.874,189.11c9.316,9.379,28.376,9.975,56.653,1.772
								c31.606-9.168,75.794-29.647,131.338-60.869c113.48-63.791,179.697-84.566,202.429-63.517
								c25.958,24.033-7.96,96.993-40.761,167.551c-27.827,59.859-54.111,116.399-37.713,132.534
								c9.068,8.925,30.553,4.984,65.674-12.041l0.436,0.9C601.149,666.483,583.852,672.042,571.976,672.043z"/>
						</g>
					</g>
					<g>
						<g>
							
								<linearGradient id="SVGID_00000061445923685370981110000015652152102053735091_" gradientUnits="userSpaceOnUse" x1="39.8413" y1="309.5191" x2="650.0406" y2="309.5191">
								<stop  offset="0" style="stop-color:#FF25B6"/>
								<stop  offset="0.013" style="stop-color:#F720C0"/>
								<stop  offset="0.0526" style="stop-color:#E112DB"/>
								<stop  offset="0.093" style="stop-color:#D208EE"/>
								<stop  offset="0.1345" style="stop-color:#C902F9"/>
								<stop  offset="0.1787" style="stop-color:#C600FD"/>
								<stop  offset="0.475" style="stop-color:#432AF3"/>
								<stop  offset="0.6457" style="stop-color:#2747ED"/>
								<stop  offset="1" style="stop-color:#000422"/>
							</linearGradient>
							<path style="fill:url(#SVGID_00000061445923685370981110000015652152102053735091_);" d="M582.713,675.106
								c-6.746,0-11.832-1.711-15.32-5.124c-17.308-16.933,7.954-73.548,34.698-133.486c31.234-70,63.531-142.384,37.417-166.369
								c-22.864-21.004-88.041-1.357-199.255,60.06c-77.295,42.688-130.883,63.827-162.133,63.83
								c-11.325,0.001-19.71-2.773-25.236-8.305c-27.263-27.289,22.607-117.394,62.679-189.794
								c27.375-49.462,51.018-92.178,41.948-100.013c-6.816-5.886-32.465,8.279-78.412,43.314
								c-29.33,22.365-55.328,37.195-77.271,44.079c-20.228,6.345-37.695,6.147-51.911-0.587
								c-22.618-10.715-37.839-37.856-46.532-82.973c-7.561-39.239-9.208-86.964-10.662-129.071
								C90.573,8.41,88.717-45.358,69.491-53.887c-7.315-3.246-16.805,0.183-29.004,10.484l-0.646-0.764
								C52.364-54.74,62.195-58.218,69.897-54.801C89.695-46.018,91.561,8.04,93.721,70.634
								c1.452,42.07,3.098,89.754,10.645,128.916c8.629,44.783,23.669,71.689,45.978,82.258c13.982,6.625,31.202,6.805,51.184,0.537
								c21.832-6.85,47.727-21.626,76.964-43.919c47.024-35.858,72.339-49.611,79.672-43.276
								c9.685,8.365-13.003,49.357-41.726,101.254c-39.91,72.107-89.578,161.847-62.847,188.603
								c9.524,9.533,28.564,10.463,56.589,2.77c31.317-8.6,74.917-28.27,129.589-58.463c111.64-61.653,177.196-81.25,200.415-59.923
								c26.643,24.474-5.802,97.191-37.18,167.514c-26.6,59.612-51.723,115.919-34.913,132.364
								c9.258,9.06,30.579,5.511,65.181-10.846l0.428,0.904C611.41,669.863,594.519,675.106,582.713,675.106z"/>
						</g>
					</g>
					<g>
						<g>
							
								<linearGradient id="SVGID_00000076589268476827470690000011009226417860831139_" gradientUnits="userSpaceOnUse" x1="37.2808" y1="306.3141" x2="654.4028" y2="306.3141">
								<stop  offset="0" style="stop-color:#FF25B6"/>
								<stop  offset="0.013" style="stop-color:#F720C0"/>
								<stop  offset="0.0526" style="stop-color:#E112DB"/>
								<stop  offset="0.093" style="stop-color:#D208EE"/>
								<stop  offset="0.1345" style="stop-color:#C902F9"/>
								<stop  offset="0.1787" style="stop-color:#C600FD"/>
								<stop  offset="0.475" style="stop-color:#432AF3"/>
								<stop  offset="0.6457" style="stop-color:#2747ED"/>
								<stop  offset="1" style="stop-color:#000422"/>
							</linearGradient>
							<path style="fill:url(#SVGID_00000076589268476827470690000011009226417860831139_);" d="M593.514,678.396
								c-7.071,0-12.412-1.794-16.092-5.374c-17.725-17.241,6.378-73.646,31.896-133.363
								c29.828-69.804,60.673-141.984,33.845-166.429c-23.366-21.286-87.904-2.803-197.31,56.507
								c-75.105,40.715-127.668,60.888-159,60.89c-11.923,0-20.768-2.92-26.616-8.74c-27.935-27.802,20.076-117.384,58.653-189.364
								c26.356-49.178,49.119-91.649,39.797-99.608c-6.98-5.96-32.257,7.768-77.281,41.956
								c-28.421,21.581-53.757,35.866-75.304,42.46c-19.888,6.085-37.215,5.817-51.498-0.798
								c-23.23-10.76-39.251-38.188-48.98-83.854c-8.461-39.713-11.065-88.022-13.363-130.644
								C88.873-0.832,85.946-55.124,66.304-63.61c-7.313-3.159-16.595,0.141-28.377,10.09l-0.646-0.764
								C49.382-64.502,59.006-67.853,66.7-64.528C86.911-55.796,89.854-1.217,93.26,61.98c2.296,42.585,4.897,90.853,13.342,130.49
								c9.659,45.336,25.498,72.536,48.422,83.153c14.053,6.51,31.139,6.761,50.785,0.749c21.434-6.559,46.665-20.79,74.992-42.299
								c46.086-34.995,71.038-48.318,78.535-41.92c9.935,8.481-11.91,49.24-39.565,100.841
								c-38.42,71.688-86.236,160.906-58.829,188.184c9.736,9.689,28.763,10.954,56.548,3.761
								c31.039-8.036,74.066-26.905,127.886-56.081c109.826-59.54,174.741-77.977,198.46-56.367
								c27.353,24.923-3.633,97.436-33.599,167.561c-25.38,59.393-49.353,115.491-32.119,132.254
								c9.448,9.193,30.614,6.031,64.705-9.664l0.418,0.908C621.717,673.46,605.238,678.394,593.514,678.396z"/>
						</g>
					</g>
					<g>
						<g>
							
								<linearGradient id="SVGID_00000183236829721125662300000014292514984827248548_" gradientUnits="userSpaceOnUse" x1="34.5269" y1="303.169" x2="658.8507" y2="303.169">
								<stop  offset="0" style="stop-color:#FF25B6"/>
								<stop  offset="0.013" style="stop-color:#F720C0"/>
								<stop  offset="0.0526" style="stop-color:#E112DB"/>
								<stop  offset="0.093" style="stop-color:#D208EE"/>
								<stop  offset="0.1345" style="stop-color:#C902F9"/>
								<stop  offset="0.1787" style="stop-color:#C600FD"/>
								<stop  offset="0.475" style="stop-color:#432AF3"/>
								<stop  offset="0.6457" style="stop-color:#2747ED"/>
								<stop  offset="1" style="stop-color:#000422"/>
							</linearGradient>
							<path style="fill:url(#SVGID_00000183236829721125662300000014292514984827248548_);" d="M604.388,681.906
								c-7.41,0-13.018-1.881-16.9-5.636c-18.153-17.557,4.799-73.778,29.099-133.302c28.432-69.643,57.831-141.657,30.265-166.568
								c-23.865-21.57-87.791-4.237-195.427,52.99c-72.932,38.775-124.472,57.999-155.86,58.002
								c-12.551,0.001-21.874-3.07-28.063-9.194c-28.626-28.325,17.542-117.425,54.64-189.018
								c25.348-48.92,47.24-91.168,37.658-99.252c-7.14-6.021-32.057,7.264-76.178,40.619
								c-27.528,20.811-52.209,34.563-73.358,40.873c-19.548,5.833-36.726,5.499-51.058-0.991
								c-23.848-10.8-40.682-38.529-51.464-84.771c-9.376-40.212-12.954-89.137-16.11-132.303
								C86.987-10.151,82.977-64.998,62.92-73.437c-7.297-3.072-16.375,0.105-27.747,9.708l-0.646-0.764
								c11.688-9.87,21.104-13.097,28.781-9.866C83.93-65.682,87.96-10.552,92.628,53.283c3.153,43.129,6.728,92.013,16.086,132.148
								c10.707,45.919,27.358,73.424,50.903,84.087c14.106,6.391,31.05,6.707,50.359,0.944
								c21.034-6.276,45.608-19.975,73.041-40.713c45.168-34.148,69.772-47.043,77.426-40.585
								c10.193,8.599-10.816,49.144-37.415,100.476c-36.946,71.302-82.927,160.039-54.824,187.847
								c9.952,9.847,28.971,11.442,56.526,4.746c30.771-7.478,73.238-25.555,126.225-53.726
								c108.052-57.448,172.348-74.735,196.566-52.85c28.086,25.382-1.448,97.727-30.01,167.688
								c-24.168,59.201-46.996,115.119-29.329,132.205c9.648,9.329,30.661,6.549,64.25-8.491l0.408,0.912
								C632.074,677.273,616.015,681.905,604.388,681.906z"/>
						</g>
					</g>
					<g>
						<g>
							
								<linearGradient id="SVGID_00000079445425881186015470000010158585492860078504_" gradientUnits="userSpaceOnUse" x1="31.5776" y1="300.0885" x2="663.3899" y2="300.0885">
								<stop  offset="0" style="stop-color:#FF25B6"/>
								<stop  offset="0.013" style="stop-color:#F720C0"/>
								<stop  offset="0.0526" style="stop-color:#E112DB"/>
								<stop  offset="0.093" style="stop-color:#D208EE"/>
								<stop  offset="0.1345" style="stop-color:#C902F9"/>
								<stop  offset="0.1787" style="stop-color:#C600FD"/>
								<stop  offset="0.475" style="stop-color:#432AF3"/>
								<stop  offset="0.6457" style="stop-color:#2747ED"/>
								<stop  offset="1" style="stop-color:#000422"/>
							</linearGradient>
							<path style="fill:url(#SVGID_00000079445425881186015470000010158585492860078504_);" d="M615.339,685.649
								c-7.764,0.001-13.651-1.972-17.745-5.908c-18.595-17.879,3.214-73.944,26.303-133.301
								c27.042-69.52,55.005-141.406,26.676-166.796c-24.38-21.852-87.707-5.655-193.601,49.51
								c-70.785,36.874-121.294,55.164-152.71,55.166c-13.206,0.001-23.035-3.23-29.582-9.671
								c-29.34-28.86,15.005-117.522,50.637-188.763c24.35-48.683,45.378-90.727,35.528-98.935
								c-7.304-6.085-31.868,6.77-75.097,39.302c-26.65,20.055-50.683,33.286-71.432,39.323c-19.202,5.588-36.223,5.193-50.59-1.168
								c-24.473-10.837-42.132-38.878-53.986-85.724C99.433,137.949,94.865,88.377,90.834,44.639
								C84.919-19.548,79.81-74.981,59.341-83.368c-7.276-2.98-16.146,0.074-27.118,9.338l-0.645-0.764
								c11.284-9.528,20.488-12.637,28.143-9.5c21.03,8.616,26.165,64.33,32.109,128.84c4.027,43.701,8.592,93.233,18.88,133.892
								c11.774,46.528,29.248,74.35,53.421,85.055c14.146,6.264,30.936,6.642,49.906,1.122
								c20.631-6.004,44.556-19.179,71.109-39.162c44.262-33.309,68.52-45.788,76.338-39.271
								c10.458,8.715-9.723,49.065-35.274,100.15c-35.487,70.951-79.651,159.253-50.83,187.602
								c10.17,10.004,29.188,11.928,56.524,5.726c30.513-6.927,72.436-24.218,124.604-51.395
								c106.31-55.382,170.004-71.527,194.731-49.368c28.844,25.853,0.754,98.066-26.411,167.903
								c-22.965,59.037-44.656,114.801-26.542,132.218c9.842,9.463,30.716,7.065,63.813-7.329l0.398,0.917
								C642.485,681.312,626.851,685.649,615.339,685.649z"/>
						</g>
					</g>
					<g>
						<g>
							
								<linearGradient id="SVGID_00000066479103170775494740000000797282230363841456_" gradientUnits="userSpaceOnUse" x1="28.4409" y1="297.0723" x2="672.2139" y2="297.0723">
								<stop  offset="0" style="stop-color:#FF25B6"/>
								<stop  offset="0.013" style="stop-color:#F720C0"/>
								<stop  offset="0.0526" style="stop-color:#E112DB"/>
								<stop  offset="0.093" style="stop-color:#D208EE"/>
								<stop  offset="0.1345" style="stop-color:#C902F9"/>
								<stop  offset="0.1787" style="stop-color:#C600FD"/>
								<stop  offset="0.475" style="stop-color:#432AF3"/>
								<stop  offset="0.6457" style="stop-color:#2747ED"/>
								<stop  offset="1" style="stop-color:#000422"/>
							</linearGradient>
							<path style="fill:url(#SVGID_00000066479103170775494740000000797282230363841456_);" d="M626.368,689.625
								c-8.131,0-14.31-2.067-18.626-6.193c-19.047-18.209,1.624-74.143,23.51-133.363c25.66-69.434,52.194-141.23,23.077-167.109
								c-24.892-22.129-87.644-7.058-191.832,46.07c-99.019,50.49-158.132,64.295-180.719,42.21
								c-30.076-29.406,12.46-117.672,46.637-188.595c23.358-48.471,43.531-90.331,33.404-98.664
								c-7.474-6.149-31.691,6.285-74.041,38.006c-25.788,19.314-49.179,32.034-69.524,37.805
								c-18.854,5.349-35.71,4.901-50.093-1.327c-25.102-10.872-43.598-39.237-56.541-86.718
								C100.365,130.463,94.788,80.209,89.867,35.87C82.665-29.03,76.444-85.079,55.569-93.405
								c-7.243-2.89-15.905,0.049-26.483,8.981l-0.645-0.764c10.887-9.194,19.882-12.185,27.499-9.146
								C77.372-85.786,83.623-29.46,90.861,35.76c4.917,44.302,10.489,94.516,21.724,135.724
								c12.859,47.168,31.168,75.32,55.974,86.064c14.168,6.137,30.797,6.567,49.422,1.282
								c20.226-5.737,43.507-18.403,69.197-37.644c43.369-32.483,67.288-44.549,75.276-37.978
								c10.733,8.831-8.628,49.006-33.139,99.871c-34.039,70.634-76.401,158.541-46.839,187.445
								c10.393,10.162,29.417,12.418,56.542,6.699c30.265-6.378,71.656-22.893,123.023-49.085
								c104.6-53.338,167.713-68.362,192.952-45.927c29.626,26.333,2.973,98.455-22.804,168.202
								c-21.768,58.903-42.33,114.54-23.757,132.294c10.039,9.598,30.771,7.576,63.392-6.178l0.389,0.922
								C652.952,685.574,637.749,689.624,626.368,689.625z"/>
						</g>
					</g>
					<g>
						<g>
							
								<linearGradient id="SVGID_00000028310855782626161220000009352391304976022941_" gradientUnits="userSpaceOnUse" x1="25.103" y1="294.112" x2="682.0059" y2="294.112">
								<stop  offset="0" style="stop-color:#FF25B6"/>
								<stop  offset="0.013" style="stop-color:#F720C0"/>
								<stop  offset="0.0526" style="stop-color:#E112DB"/>
								<stop  offset="0.093" style="stop-color:#D208EE"/>
								<stop  offset="0.1345" style="stop-color:#C902F9"/>
								<stop  offset="0.1787" style="stop-color:#C600FD"/>
								<stop  offset="0.475" style="stop-color:#432AF3"/>
								<stop  offset="0.6457" style="stop-color:#2747ED"/>
								<stop  offset="1" style="stop-color:#000422"/>
							</linearGradient>
							<path style="fill:url(#SVGID_00000028310855782626161220000009352391304976022941_);" d="M637.494,693.826
								c-8.513,0-14.995-2.166-19.546-6.49c-19.513-18.545,0.027-74.375,20.714-133.483c24.281-69.383,49.391-141.127,19.46-167.509
								c-25.419-22.404-87.607-8.447-190.12,42.666c-66.536,33.174-114.968,49.647-146.348,49.648
								c-14.615,0.001-25.527-3.57-32.854-10.691c-30.833-29.966,9.906-117.878,42.641-188.516
								c22.375-48.284,41.699-89.982,31.287-98.439c-7.638-6.205-31.52,5.81-73.007,36.729
								c-24.942,18.588-47.699,30.81-67.637,36.324c-18.505,5.117-35.182,4.621-49.568-1.473
								c-25.737-10.903-45.08-39.607-59.134-87.75c-12.219-41.857-18.826-92.827-24.654-137.796
								C80.219-38.602,72.87-95.299,51.594-103.559c-7.2-2.795-15.655,0.029-25.846,8.635l-0.646-0.764
								c10.498-8.864,19.28-11.742,26.853-8.803c21.829,8.475,29.213,65.444,37.763,131.409
								c5.824,44.933,12.424,95.861,24.622,137.645c13.965,47.837,33.122,76.331,58.564,87.109
								c14.174,6.006,30.629,6.485,48.911,1.43c19.819-5.481,42.464-17.648,67.306-36.162
								c42.488-31.667,66.078-43.329,74.235-36.704c11.017,8.948-7.529,48.968-31.01,99.636
								c-32.602,70.352-73.176,157.907-42.852,187.378c10.619,10.32,29.655,12.898,56.578,7.668
								c30.026-5.836,70.899-21.582,121.481-46.802c102.918-51.315,165.469-65.225,191.228-42.521
								c30.436,26.826,5.214,98.895-19.178,168.589c-20.576,58.795-40.012,114.329-20.968,132.429
								c10.237,9.731,30.843,8.083,62.99-5.038l0.378,0.926C663.489,690.056,648.726,693.826,637.494,693.826z"/>
						</g>
					</g>
					<g>
						<g>
							
								<linearGradient id="SVGID_00000047028403656479710430000012640311087874176443_" gradientUnits="userSpaceOnUse" x1="21.5698" y1="291.2116" x2="691.8594" y2="291.2116">
								<stop  offset="0" style="stop-color:#FF25B6"/>
								<stop  offset="0.013" style="stop-color:#F720C0"/>
								<stop  offset="0.0526" style="stop-color:#E112DB"/>
								<stop  offset="0.093" style="stop-color:#D208EE"/>
								<stop  offset="0.1345" style="stop-color:#C902F9"/>
								<stop  offset="0.1787" style="stop-color:#C600FD"/>
								<stop  offset="0.475" style="stop-color:#432AF3"/>
								<stop  offset="0.6457" style="stop-color:#2747ED"/>
								<stop  offset="1" style="stop-color:#000422"/>
							</linearGradient>
							<path style="fill:url(#SVGID_00000047028403656479710430000012640311087874176443_);" d="M648.706,698.265
								c-8.91,0-15.708-2.268-20.503-6.8c-19.988-18.888-1.576-74.638,17.918-133.662c22.911-69.371,46.602-141.103,15.829-168.002
								c-25.941-22.675-87.589-9.823-188.46,39.297c-64.436,31.379-111.817,46.968-143.129,46.971
								c-15.369,0.001-26.861-3.753-34.61-11.237c-31.614-30.536,7.344-118.136,38.647-188.523
								c21.4-48.121,39.883-89.68,29.174-98.262c-7.811-6.262-31.362,5.345-71.997,35.474
								c-24.112,17.878-46.241,29.611-65.771,34.876c-18.152,4.893-34.642,4.354-49.014-1.603
								c-26.373-10.931-46.575-39.985-61.759-88.822c-13.201-42.457-20.856-94.174-27.611-139.803
								C77.586-48.267,69.093-105.641,47.423-113.83c-7.15-2.703-15.395,0.013-25.208,8.3l-0.646-0.764
								c10.116-8.541,18.686-11.313,26.207-8.471c22.22,8.396,30.752,66.04,40.632,132.787
								c6.749,45.593,14.398,97.27,27.576,139.652c15.091,48.536,35.106,77.384,61.188,88.195
								c29.822,12.361,67.048,1.516,113.807-33.153c41.623-30.861,64.889-42.125,73.218-35.45
								c11.31,9.064-6.429,48.95-28.886,99.448c-31.177,70.103-69.977,157.348-38.866,187.397
								c10.848,10.478,29.902,13.382,56.631,8.628c29.797-5.298,70.163-20.283,119.976-44.54
								c101.273-49.316,163.278-62.122,189.556-39.151c31.272,27.335,7.476,99.388-15.538,169.068
								c-19.391,58.714-37.707,114.171-18.181,132.622c10.438,9.863,30.916,8.583,62.603-3.909l0.367,0.93
								C674.087,694.767,659.769,698.265,648.706,698.265z"/>
						</g>
					</g>
					<g>
						<g>
							
								<linearGradient id="SVGID_00000036964488356423492570000015105066817999941265_" gradientUnits="userSpaceOnUse" x1="17.8354" y1="288.3753" x2="701.7891" y2="288.3753">
								<stop  offset="0" style="stop-color:#FF25B6"/>
								<stop  offset="0.013" style="stop-color:#F720C0"/>
								<stop  offset="0.0526" style="stop-color:#E112DB"/>
								<stop  offset="0.093" style="stop-color:#D208EE"/>
								<stop  offset="0.1345" style="stop-color:#C902F9"/>
								<stop  offset="0.1787" style="stop-color:#C600FD"/>
								<stop  offset="0.475" style="stop-color:#432AF3"/>
								<stop  offset="0.6457" style="stop-color:#2747ED"/>
								<stop  offset="1" style="stop-color:#000422"/>
							</linearGradient>
							<path style="fill:url(#SVGID_00000036964488356423492570000015105066817999941265_);" d="M660.024,702.946
								c-9.324,0-16.452-2.376-21.505-7.123c-20.477-19.241-3.188-74.94,15.118-133.91c21.542-69.397,43.818-141.157,12.177-168.583
								c-26.476-22.948-87.594-11.181-186.846,35.967c-49.146,23.346-89.109,37.606-118.779,42.387
								c-26.872,4.33-46.237,1.017-57.556-9.85c-32.419-31.12,4.767-118.45,34.647-188.621
								c20.433-47.984,38.079-89.425,27.065-98.132c-7.988-6.314-31.211,4.887-71.008,34.234
								c-23.3,17.183-44.808,28.441-63.928,33.465c-17.796,4.675-34.09,4.096-48.43-1.721c-27.01-10.956-48.08-40.372-64.415-89.929
								c-14.199-43.08-22.924-95.576-30.622-141.893C74.764-58.019,65.11-116.104,43.052-124.216
								c-7.087-2.606-15.126,0.003-24.571,7.977l-0.646-0.764c9.744-8.228,18.105-10.896,25.562-8.152
								C66.002-116.841,75.7-58.491,86.929,9.073c7.692,46.281,16.411,98.738,30.585,141.744
								c16.237,49.261,37.119,78.477,63.84,89.315c29.33,11.896,66.805,1.256,111.389-31.622
								c40.77-30.066,63.715-40.939,72.222-34.214c11.613,9.181-5.323,48.954-26.765,99.309
								c-29.76,69.888-66.796,156.865-34.875,187.507c11.08,10.637,30.159,13.862,56.704,9.584
								c29.577-4.765,69.448-18.997,118.509-42.302c99.653-47.338,161.125-59.055,187.931-35.82
								c32.135,27.854,9.761,99.931-11.877,169.635c-18.21,58.663-35.41,114.072-15.388,132.886
								c10.638,9.995,30.994,9.083,62.229-2.79l0.355,0.935C684.761,699.713,670.898,702.945,660.024,702.946z"/>
						</g>
					</g>
					<g>
						<g>
							
								<linearGradient id="SVGID_00000129192736992409933820000007654318479306486156_" gradientUnits="userSpaceOnUse" x1="13.9058" y1="285.5939" x2="711.7988" y2="285.5939">
								<stop  offset="0" style="stop-color:#FF25B6"/>
								<stop  offset="0.013" style="stop-color:#F720C0"/>
								<stop  offset="0.0526" style="stop-color:#E112DB"/>
								<stop  offset="0.093" style="stop-color:#D208EE"/>
								<stop  offset="0.1345" style="stop-color:#C902F9"/>
								<stop  offset="0.1787" style="stop-color:#C600FD"/>
								<stop  offset="0.475" style="stop-color:#432AF3"/>
								<stop  offset="0.6457" style="stop-color:#2747ED"/>
								<stop  offset="1" style="stop-color:#000422"/>
							</linearGradient>
							<path style="fill:url(#SVGID_00000129192736992409933820000007654318479306486156_);" d="M671.446,707.864
								c-9.755,0-17.227-2.487-22.549-7.461c-20.979-19.603-4.808-75.277,12.313-134.22c20.176-69.461,41.039-141.286,8.501-169.254
								c-27.006-23.217-87.612-12.525-185.283,32.677c-48.409,22.402-87.893,35.918-117.353,40.169
								c-26.688,3.85-46.077,0.218-57.625-10.8c-33.251-31.719,2.177-118.824,30.644-188.814
								c19.47-47.872,36.285-89.215,24.956-98.047c-8.161-6.359-31.069,4.441-70.038,33.018
								c-22.504,16.503-43.4,27.299-62.108,32.088c-17.438,4.462-33.526,3.851-47.819-1.826
								c-27.648-10.977-49.597-40.771-67.102-91.081C102.768,100.583,92.951,47.271,84.29,0.236
								C71.748-67.877,60.917-126.701,38.481-134.731c-7.019-2.513-14.846-0.005-23.93,7.664l-0.646-0.764
								c9.378-7.92,17.527-10.486,24.913-7.842c22.977,8.225,33.857,67.311,46.455,135.727
								c8.654,47.001,18.464,100.272,33.654,143.93c17.403,50.02,39.165,79.616,66.526,90.48
								c29.218,11.599,65.878,1.46,108.967-30.14c39.928-29.28,62.567-39.764,71.244-33.001
								c11.926,9.297-4.213,48.977-24.645,99.213c-28.353,69.709-63.638,156.466-30.88,187.714
								c11.315,10.794,30.424,14.34,56.792,10.533c29.365-4.237,68.755-17.725,117.076-40.087
								c98.063-45.384,159.019-56.024,186.355-32.527c33.025,28.388,12.071,100.527-8.193,170.291
								c-17.033,58.64-33.121,114.027-12.591,133.211c10.842,10.128,31.081,9.579,61.875-1.681l0.344,0.939
								C695.511,704.887,682.113,707.863,671.446,707.864z"/>
						</g>
					</g>
					<g>
						<g>
							
								<linearGradient id="SVGID_00000155833830640712056600000001610194282459402145_" gradientUnits="userSpaceOnUse" x1="9.771" y1="282.8736" x2="721.8945" y2="282.8736">
								<stop  offset="0" style="stop-color:#FF25B6"/>
								<stop  offset="0.013" style="stop-color:#F720C0"/>
								<stop  offset="0.0526" style="stop-color:#E112DB"/>
								<stop  offset="0.093" style="stop-color:#D208EE"/>
								<stop  offset="0.1345" style="stop-color:#C902F9"/>
								<stop  offset="0.1787" style="stop-color:#C600FD"/>
								<stop  offset="0.475" style="stop-color:#432AF3"/>
								<stop  offset="0.6457" style="stop-color:#2747ED"/>
								<stop  offset="1" style="stop-color:#000422"/>
							</linearGradient>
							<path style="fill:url(#SVGID_00000155833830640712056600000001610194282459402145_);" d="M682.985,713.031
								c-10.201,0-18.032-2.604-23.638-7.813c-21.494-19.974-6.438-75.65,9.501-134.596c18.812-69.563,38.263-141.494,4.8-170.02
								c-27.543-23.48-87.653-13.855-183.764,29.42c-47.689,21.471-86.705,34.247-115.966,37.975
								c-26.512,3.377-45.93-0.574-57.713-11.744c-34.107-32.332-0.427-119.257,26.635-189.103
								c18.514-47.782,34.503-89.049,22.849-98.005c-8.333-6.405-30.93,4.004-69.086,31.822
								c-30.558,22.278-58.063,33.47-82.117,33.472c-8.944,0.001-17.407-1.546-25.378-4.645
								c-28.285-10.998-51.123-41.181-69.819-92.274C103.04,93.114,92.109,38.955,82.465-8.83
								C68.539-77.834,56.511-137.428,33.708-145.372c-6.94-2.418-14.56-0.01-23.291,7.362l-0.646-0.764
								c9.024-7.621,16.959-10.089,24.266-7.542c23.342,8.131,35.422,67.984,49.409,137.289
								c19.189,95.08,43.071,213.411,106.024,237.889c29.069,11.303,64.917,1.646,106.544-28.702
								c39.098-28.505,61.429-38.614,70.285-31.807c12.248,9.413-3.098,49.018-22.525,99.16
								c-26.954,69.566-60.499,156.145-26.88,188.016c11.554,10.952,30.697,14.811,56.899,11.478
								c29.163-3.715,68.084-16.464,115.682-37.895c96.499-43.449,156.954-53.023,184.822-29.27
								c33.945,28.938,14.41,101.18-4.482,171.043c-15.859,58.646-30.839,114.039-9.786,133.603
								c11.044,10.262,31.174,10.069,61.535-0.582l0.331,0.943C706.345,710.304,693.424,713.031,682.985,713.031z"/>
						</g>
					</g>
					<g>
						<g>
							
								<linearGradient id="SVGID_00000088093415053962444690000009504298724295729286_" gradientUnits="userSpaceOnUse" x1="5.4311" y1="280.2089" x2="732.0674" y2="280.2089">
								<stop  offset="0" style="stop-color:#FF25B6"/>
								<stop  offset="0.013" style="stop-color:#F720C0"/>
								<stop  offset="0.0526" style="stop-color:#E112DB"/>
								<stop  offset="0.093" style="stop-color:#D208EE"/>
								<stop  offset="0.1345" style="stop-color:#C902F9"/>
								<stop  offset="0.1787" style="stop-color:#C600FD"/>
								<stop  offset="0.475" style="stop-color:#432AF3"/>
								<stop  offset="0.6457" style="stop-color:#2747ED"/>
								<stop  offset="1" style="stop-color:#000422"/>
							</linearGradient>
							<path style="fill:url(#SVGID_00000088093415053962444690000009504298724295729286_);" d="M694.637,718.441
								c-10.666,0.001-18.869-2.726-24.77-8.18c-22.021-20.353-8.078-76.057,6.683-135.03
								c17.446-69.706,35.487-141.785,1.067-170.887c-28.079-23.74-87.707-15.171-182.293,26.199
								c-46.98,20.549-85.539,32.594-114.605,35.802c-26.347,2.91-45.796-1.358-57.813-12.679
								c-34.988-32.96-3.049-119.744,22.613-189.477c17.563-47.721,32.729-88.934,20.739-98.015
								c-8.507-6.441-30.803,3.58-68.153,30.645c-29.397,21.302-56.088,32.002-79.69,32.003c-8.902,0-17.36-1.521-25.364-4.57
								c-28.919-11.016-52.655-41.602-72.564-93.507C103.185,85.638,91.116,30.597,80.468-17.965
								c-15.334-69.933-28.577-130.33-51.739-138.182c-6.857-2.327-14.266-0.012-22.652,7.07l-0.646-0.764
								c8.677-7.327,16.403-9.7,23.619-7.253c23.696,8.033,36.995,68.685,52.395,138.914
								c21.196,96.668,47.575,216.973,111.961,241.498c28.888,11.005,63.918,1.816,104.111-27.309
								c38.279-27.738,60.311-37.474,69.344-30.632c12.581,9.528-1.976,49.081-20.404,99.158
								c-25.562,69.456-57.373,155.897-22.867,188.403c11.794,11.111,30.978,15.283,57.018,12.414
								c28.966-3.197,67.427-15.217,114.315-35.725c94.97-41.537,154.939-50.058,183.339-26.047
								c34.896,29.504,16.778,101.89-0.743,171.892c-14.687,58.679-28.559,114.104-6.974,134.054
								c11.246,10.393,31.267,10.558,61.204,0.506l0.318,0.947C717.257,715.954,704.823,718.441,694.637,718.441z"/>
						</g>
					</g>
					<g>
						<g>
							
								<linearGradient id="SVGID_00000070089815053272073020000014562730649556807311_" gradientUnits="userSpaceOnUse" x1="0.8862" y1="277.5986" x2="742.3398" y2="277.5986">
								<stop  offset="0" style="stop-color:#FF25B6"/>
								<stop  offset="0.013" style="stop-color:#F720C0"/>
								<stop  offset="0.0526" style="stop-color:#E112DB"/>
								<stop  offset="0.093" style="stop-color:#D208EE"/>
								<stop  offset="0.1345" style="stop-color:#C902F9"/>
								<stop  offset="0.1787" style="stop-color:#C600FD"/>
								<stop  offset="0.475" style="stop-color:#432AF3"/>
								<stop  offset="0.6457" style="stop-color:#2747ED"/>
								<stop  offset="1" style="stop-color:#000422"/>
							</linearGradient>
							<path style="fill:url(#SVGID_00000070089815053272073020000014562730649556807311_);" d="M706.421,724.101
								c-11.149,0.001-19.742-2.853-25.954-8.565c-22.56-20.743-9.731-76.502,3.852-135.534
								c16.08-69.885,32.708-142.149-2.695-171.84c-28.613-23.999-87.774-16.47-180.858,23.019
								c-46.288,19.636-84.402,30.958-113.284,33.65c-26.183,2.446-45.675-2.138-57.931-13.611
								c-35.897-33.605-5.691-120.298,18.58-189.957c16.614-47.684,30.963-88.864,18.627-98.068
								c-8.685-6.48-30.68,3.166-67.237,29.489c-39.083,28.14-73.61,36.918-102.618,26.087
								c-29.55-11.031-54.192-42.036-75.334-94.785C103.196,78.149,89.966,22.192,78.294-27.178
								C61.531-98.076,47.054-159.306,23.547-167.062c-6.763-2.229-13.964-0.011-22.015,6.788l-0.646-0.764
								c8.339-7.042,15.853-9.323,22.974-6.974c24.038,7.932,38.575,69.414,55.406,140.603
								c23.245,98.316,52.174,220.673,117.985,245.242c28.676,10.705,62.889,1.971,101.684-25.962
								c37.47-26.98,59.21-36.351,68.419-29.479c12.923,9.642-0.847,49.163-18.281,99.199
								c-24.176,69.385-54.263,155.737-18.841,188.898c12.038,11.27,31.267,15.761,57.154,13.346
								c28.779-2.684,66.793-13.98,112.986-33.575c93.462-39.649,152.96-47.127,181.892-22.865
								c16.07,13.477,22.907,37.036,20.901,72.021c-1.766,30.802-9.954,66.392-17.874,100.81
								c-13.517,58.74-26.283,114.224-4.15,134.574c11.446,10.524,31.365,11.044,60.892,1.583l0.305,0.953
								C728.268,721.845,716.334,724.101,706.421,724.101z"/>
						</g>
					</g>
					<g>
						<g>
							
								<linearGradient id="SVGID_00000020379367376294691240000001029013609352819361_" gradientUnits="userSpaceOnUse" x1="-3.8638" y1="275.0475" x2="752.7021" y2="275.0475">
								<stop  offset="0" style="stop-color:#FF25B6"/>
								<stop  offset="0.013" style="stop-color:#F720C0"/>
								<stop  offset="0.0526" style="stop-color:#E112DB"/>
								<stop  offset="0.093" style="stop-color:#D208EE"/>
								<stop  offset="0.1345" style="stop-color:#C902F9"/>
								<stop  offset="0.1787" style="stop-color:#C600FD"/>
								<stop  offset="0.475" style="stop-color:#432AF3"/>
								<stop  offset="0.6457" style="stop-color:#2747ED"/>
								<stop  offset="1" style="stop-color:#000422"/>
							</linearGradient>
							<path style="fill:url(#SVGID_00000020379367376294691240000001029013609352819361_);" d="M718.332,730.017
								c-11.65,0-20.648-2.985-27.185-8.965c-23.112-21.145-11.395-76.983,1.012-136.102
								c14.713-70.105,29.926-142.597-6.493-172.898c-29.152-24.254-87.856-17.754-179.468,19.874
								c-45.608,18.731-83.288,29.337-111.992,31.52c-26.03,1.983-45.564-2.91-58.06-14.536
								c-36.833-34.268-8.353-120.91,14.53-190.528c15.67-47.673,29.203-88.844,16.51-98.172
								c-8.862-6.51-30.561,2.761-66.337,28.352c-27.169,19.433-52.263,29.193-74.923,29.195
								c-8.792,0.001-17.215-1.468-25.255-4.412c-30.175-11.045-55.73-42.481-78.128-96.105
								C103.082,70.649,88.666,13.742,75.947-36.466C57.733-108.366,42.002-170.46,18.162-178.116
								c-6.66-2.138-13.654-0.008-21.38,6.516l-0.646-0.764c8.011-6.764,15.317-8.956,22.331-6.704
								c24.368,7.825,40.162,70.169,58.449,142.356c25.34,100.026,56.876,224.511,124.099,249.118
								c28.433,10.407,61.827,2.111,99.252-24.658c36.676-26.234,58.13-35.24,67.511-28.345c13.277,9.757,0.29,49.268-16.152,99.29
								c-22.794,69.348-51.163,155.652-14.799,189.484c12.283,11.428,31.563,16.229,57.303,14.271
								c28.599-2.175,66.176-12.756,111.686-31.448c91.988-37.781,151.026-44.232,180.488-19.717
								c16.52,13.745,23.938,37.521,22.679,72.686c-1.109,30.964-8.602,66.662-15.846,101.186
								c-12.347,58.831-24.008,114.399-1.316,135.158c11.647,10.655,31.465,11.524,60.589,2.65l0.291,0.957
								C739.368,727.982,727.947,730.017,718.332,730.017z"/>
						</g>
					</g>
					<g>
						<g>
							
								<linearGradient id="SVGID_00000147935713837618684540000008199618983295826366_" gradientUnits="userSpaceOnUse" x1="-8.8247" y1="272.5655" x2="763.166" y2="272.5655">
								<stop  offset="0" style="stop-color:#FF25B6"/>
								<stop  offset="0.013" style="stop-color:#F720C0"/>
								<stop  offset="0.0526" style="stop-color:#E112DB"/>
								<stop  offset="0.093" style="stop-color:#D208EE"/>
								<stop  offset="0.1345" style="stop-color:#C902F9"/>
								<stop  offset="0.1787" style="stop-color:#C600FD"/>
								<stop  offset="0.475" style="stop-color:#432AF3"/>
								<stop  offset="0.6457" style="stop-color:#2747ED"/>
								<stop  offset="1" style="stop-color:#000422"/>
							</linearGradient>
							<path style="fill:url(#SVGID_00000147935713837618684540000008199618983295826366_);" d="M730.385,736.192
								c-12.174,0-21.594-3.124-28.472-9.386c-23.677-21.558-13.069-77.506-1.84-136.739
								c13.341-70.364,27.135-143.124-10.328-174.053c-29.685-24.509-87.946-19.023-178.113,16.767
								c-44.943,17.839-82.199,27.734-110.732,29.413c-25.882,1.517-45.467-3.678-58.204-15.454
								c-37.796-34.948-11.039-121.585,10.462-191.198c14.729-47.689,27.45-88.875,14.388-98.326
								c-9.037-6.538-30.45,2.369-65.454,27.235c-36.374,25.837-69.259,33.751-97.744,23.523
								c-30.792-11.057-57.27-42.939-80.944-97.468C102.837,63.133,87.21,5.242,73.422-45.835
								c-19.689-72.937-36.693-135.927-60.854-143.479c-6.552-2.049-13.339-0.003-20.747,6.251l-0.646-0.764
								c7.584-6.404,14.879-8.572,21.691-6.442c24.685,7.716,41.755,70.952,61.521,144.174
								c27.48,101.797,61.679,228.487,130.299,253.128c28.16,10.11,60.736,2.24,96.827-23.398
								c35.89-25.495,57.058-34.146,66.619-27.229c13.643,9.871,1.436,49.394-14.018,99.431
								c-21.418,69.346-48.073,155.649-10.739,190.169c12.53,11.585,31.862,16.698,57.466,15.189
								c28.426-1.672,65.578-11.544,110.421-29.344c90.535-35.938,149.125-41.37,179.119-16.607
								c16.983,14.02,24.992,38.027,24.483,73.393c-0.448,31.142-7.24,66.969-13.81,101.617
								c-11.176,58.95-21.732,114.632,1.531,135.813c11.848,10.787,31.571,12.001,60.302,3.709l0.277,0.961
								C750.574,734.372,739.677,736.192,730.385,736.192z"/>
						</g>
					</g>
					<g>
						<g>
							
								<linearGradient id="SVGID_00000159470042050367169300000006508220462675513481_" gradientUnits="userSpaceOnUse" x1="-13.9946" y1="270.1233" x2="773.7334" y2="270.1233">
								<stop  offset="0" style="stop-color:#FF25B6"/>
								<stop  offset="0.013" style="stop-color:#F720C0"/>
								<stop  offset="0.0526" style="stop-color:#E112DB"/>
								<stop  offset="0.093" style="stop-color:#D208EE"/>
								<stop  offset="0.1345" style="stop-color:#C902F9"/>
								<stop  offset="0.1787" style="stop-color:#C600FD"/>
								<stop  offset="0.475" style="stop-color:#432AF3"/>
								<stop  offset="0.6457" style="stop-color:#2747ED"/>
								<stop  offset="1" style="stop-color:#000422"/>
							</linearGradient>
							<path style="fill:url(#SVGID_00000159470042050367169300000006508220462675513481_);" d="M742.581,742.625
								c-12.717,0.001-22.574-3.268-29.808-9.824c-24.254-21.98-14.759-78.063-4.706-137.438
								c11.963-70.663,24.334-143.732-14.205-175.311c-30.217-24.76-88.047-20.282-176.797,13.693
								c-44.29,16.955-81.132,26.149-109.501,27.327c-25.741,1.067-45.378-4.438-58.359-16.367
								c-38.789-35.646-13.749-122.323,6.371-191.97c13.79-47.731,25.698-88.953,12.257-98.526
								c-9.214-6.563-30.338,1.986-64.582,26.138c-25.061,17.675-48.596,26.551-70.268,26.552
								c-8.653,0.001-17.005-1.414-25.045-4.248c-31.403-11.068-58.807-43.411-83.779-98.876
								C102.468,55.596,85.604-3.313,70.724-55.289C49.537-129.301,31.238-193.22,6.77-200.665
								c-6.438-1.958-13.02,0.002-20.119,5.997l-0.646-0.764c7.277-6.144,14.361-8.227,21.056-6.19
								c24.989,7.604,43.356,71.765,64.624,146.058c29.667,103.631,66.588,232.603,136.586,257.274
								c27.857,9.817,59.618,2.354,94.405-22.179c35.114-24.766,56.002-33.068,65.738-26.135
								c14.018,9.984,2.591,49.54-11.876,99.619c-20.043,69.381-44.988,155.728-6.656,190.956
								c12.778,11.743,32.176,17.152,57.641,16.103c28.26-1.174,64.995-10.346,109.185-27.262
								c89.112-34.113,147.267-38.542,177.788-13.533c17.46,14.307,26.069,38.56,26.318,74.145
								c0.22,31.339-5.871,67.314-11.762,102.106c-10.005,59.097-19.455,114.916,4.392,136.529
								c12.048,10.92,31.684,12.475,60.025,4.756l0.264,0.965C761.884,741.008,751.524,742.625,742.581,742.625z"/>
						</g>
					</g>
					<g>
						<g>
							
								<linearGradient id="SVGID_00000058554510811776708330000012421688042662900384_" gradientUnits="userSpaceOnUse" x1="-19.3813" y1="267.741" x2="784.4053" y2="267.741">
								<stop  offset="0" style="stop-color:#FF25B6"/>
								<stop  offset="0.013" style="stop-color:#F720C0"/>
								<stop  offset="0.0526" style="stop-color:#E112DB"/>
								<stop  offset="0.093" style="stop-color:#D208EE"/>
								<stop  offset="0.1345" style="stop-color:#C902F9"/>
								<stop  offset="0.1787" style="stop-color:#C600FD"/>
								<stop  offset="0.475" style="stop-color:#432AF3"/>
								<stop  offset="0.6457" style="stop-color:#2747ED"/>
								<stop  offset="1" style="stop-color:#000422"/>
							</linearGradient>
							<path style="fill:url(#SVGID_00000058554510811776708330000012421688042662900384_);" d="M754.931,749.329
								c-13.28,0-23.596-3.42-31.202-10.284c-24.842-22.418-16.461-78.661-7.587-138.207
								c10.58-71.004,21.521-144.424-18.125-176.673c-30.746-25.011-88.158-21.525-175.516,10.657
								c-43.651,16.081-80.089,24.581-108.301,25.264c-25.61,0.605-45.302-5.191-58.526-17.272
								c-39.81-36.367-16.485-123.13,2.256-192.844c12.851-47.801,23.949-89.084,10.117-98.779
								c-9.387-6.578-30.232,1.618-63.721,25.06c-33.796,23.657-65.052,30.765-92.893,21.127
								c-32.003-11.078-60.341-43.896-86.633-100.329C101.964,48.033,83.837-11.929,67.844-64.831
								C45.134-139.954,25.521-204.832,0.76-212.167c-6.317-1.871-12.696,0.01-19.496,5.752l-0.646-0.764
								c6.98-5.894,13.853-7.896,20.426-5.947c25.277,7.487,44.963,72.605,67.757,148.004
								c31.901,105.524,71.603,236.853,142.959,261.554c27.523,9.527,58.474,2.461,91.992-21.002
								c34.347-24.043,54.961-32.004,64.869-25.06c14.405,10.097,3.757,49.709-9.725,99.858
								c-18.671,69.453-41.908,155.89-2.548,191.846c13.028,11.9,32.468,17.638,57.828,17.011
								c28.102-0.68,64.432-9.159,107.979-25.201c87.714-32.315,145.447-35.751,176.492-10.495
								c17.951,14.602,27.171,39.115,28.185,74.941c0.894,31.554-4.493,67.699-9.702,102.654
								c-8.832,59.272-17.175,115.259,7.268,137.317c12.246,11.051,31.792,12.946,59.759,5.794l0.248,0.969
								C773.302,747.905,763.499,749.329,754.931,749.329z"/>
						</g>
					</g>
					<g>
						<g>
							
								<linearGradient id="SVGID_00000074410480496907848010000000954238650990605967_" gradientUnits="userSpaceOnUse" x1="-24.981" y1="265.4086" x2="795.1943" y2="265.4086">
								<stop  offset="0" style="stop-color:#FF25B6"/>
								<stop  offset="0.013" style="stop-color:#F720C0"/>
								<stop  offset="0.0526" style="stop-color:#E112DB"/>
								<stop  offset="0.093" style="stop-color:#D208EE"/>
								<stop  offset="0.1345" style="stop-color:#C902F9"/>
								<stop  offset="0.1787" style="stop-color:#C600FD"/>
								<stop  offset="0.475" style="stop-color:#432AF3"/>
								<stop  offset="0.6457" style="stop-color:#2747ED"/>
								<stop  offset="1" style="stop-color:#000422"/>
							</linearGradient>
							<path style="fill:url(#SVGID_00000074410480496907848010000000954238650990605967_);" d="M767.439,756.294
								c-13.867,0.001-24.657-3.577-32.654-10.765c-25.441-22.867-18.176-79.297-10.484-139.04
								c9.19-71.383,18.693-145.195-22.089-178.137c-31.272-25.261-88.276-22.757-174.268,7.658
								c-43.025,15.216-79.069,23.028-107.13,23.22c-0.352,0.003-0.704,0.004-1.054,0.004c-24.975,0-44.366-6.113-57.65-18.177
								c-40.859-37.107-19.249-124-1.885-193.819c11.912-47.897,22.2-89.263,7.966-99.08c-9.559-6.591-30.125,1.258-62.874,24.003
								c-32.559,22.613-63.001,29.339-90.484,19.99C141.665,167.259,99.036,33.227,64.782-74.471
								C40.525-150.74,19.576-216.608-5.459-223.829c-6.193-1.785-12.368,0.017-18.876,5.514l-0.646-0.764
								c6.691-5.65,13.352-7.571,19.799-5.711c25.549,7.369,46.573,73.474,70.918,150.016
								C99.92,32.709,142.465,166.475,215.156,191.204c27.165,9.242,57.308,2.558,89.592-19.864
								c33.59-23.33,53.931-30.958,64.011-24.004c14.804,10.21,4.934,49.897-7.563,100.144
								c-17.3,69.561-38.83,156.132,1.587,192.838c13.093,11.891,32.26,17.917,56.977,17.917c0.35,0,0.697-0.001,1.048-0.004
								c27.949-0.19,63.883-7.983,106.803-23.163c86.346-30.538,143.665-32.99,175.229-7.492
								c18.455,14.906,28.295,39.695,30.081,75.782c1.573,31.788-3.104,68.121-7.629,103.259
								c-7.657,59.477-14.89,115.653,10.162,138.17c12.443,11.185,31.908,13.414,59.508,6.82l0.232,0.973
								C784.839,755.054,775.604,756.294,767.439,756.294z"/>
						</g>
					</g>
					<g>
						<g>
							
								<linearGradient id="SVGID_00000040558391939981943560000009981474856136966810_" gradientUnits="userSpaceOnUse" x1="-30.8032" y1="263.1335" x2="806.0947" y2="263.1335">
								<stop  offset="0" style="stop-color:#FF25B6"/>
								<stop  offset="0.013" style="stop-color:#F720C0"/>
								<stop  offset="0.0526" style="stop-color:#E112DB"/>
								<stop  offset="0.093" style="stop-color:#D208EE"/>
								<stop  offset="0.1345" style="stop-color:#C902F9"/>
								<stop  offset="0.1787" style="stop-color:#C600FD"/>
								<stop  offset="0.475" style="stop-color:#432AF3"/>
								<stop  offset="0.6457" style="stop-color:#2747ED"/>
								<stop  offset="1" style="stop-color:#000422"/>
							</linearGradient>
							<path style="fill:url(#SVGID_00000040558391939981943560000009981474856136966810_);" d="M780.113,763.538
								c-14.479,0.001-25.762-3.741-34.168-11.269c-26.053-23.331-19.907-79.976-13.4-139.946
								c7.791-71.803,15.848-146.05-26.102-179.709c-31.794-25.509-88.399-23.973-173.05,4.693
								c-42.411,14.362-78.063,21.517-105.984,21.2c-25.361-0.268-45.175-6.683-58.891-19.067
								c-41.938-37.869-22.043-124.936-6.057-194.896c10.973-48.023,20.45-89.497,5.801-99.436
								c-9.727-6.6-30.021,0.91-62.037,22.965c-31.354,21.598-60.99,27.954-88.087,18.89C143.666,162.05,98.13,25.509,61.542-84.204
								c-25.83-77.454-48.138-144.346-73.435-151.451c-6.063-1.704-12.037,0.025-18.265,5.285l-0.646-0.764
								c6.411-5.414,12.864-7.259,19.181-5.484C14.184-229.369,36.57-162.244,62.49-84.52
								c36.518,109.501,81.966,245.78,155.965,270.536c26.781,8.96,56.121,2.646,87.202-18.765
								c32.842-22.626,52.913-29.927,63.165-22.969c15.214,10.322,6.123,50.111-5.388,100.485
								c-15.927,69.706-35.75,156.456,5.753,193.931c13.529,12.217,33.121,18.545,58.23,18.81
								c27.815,0.272,63.351-6.822,105.654-21.147c84.998-28.784,141.914-30.269,173.996-4.525
								c18.973,15.223,29.443,40.303,32.01,76.673c2.261,32.04-1.704,68.583-5.539,103.924
								c-6.479,59.708-12.598,116.104,13.073,139.093c12.64,11.317,32.027,13.881,59.266,7.84l0.217,0.977
								C796.493,762.47,787.846,763.538,780.113,763.538z"/>
						</g>
					</g>
					<g>
						<g>
							
								<linearGradient id="SVGID_00000183964234130878752420000017891931699023408564_" gradientUnits="userSpaceOnUse" x1="-36.8384" y1="260.9121" x2="817.1201" y2="260.9121">
								<stop  offset="0" style="stop-color:#FF25B6"/>
								<stop  offset="0.013" style="stop-color:#F720C0"/>
								<stop  offset="0.0526" style="stop-color:#E112DB"/>
								<stop  offset="0.093" style="stop-color:#D208EE"/>
								<stop  offset="0.1345" style="stop-color:#C902F9"/>
								<stop  offset="0.1787" style="stop-color:#C600FD"/>
								<stop  offset="0.475" style="stop-color:#432AF3"/>
								<stop  offset="0.6457" style="stop-color:#2747ED"/>
								<stop  offset="1" style="stop-color:#000422"/>
							</linearGradient>
							<path style="fill:url(#SVGID_00000183964234130878752420000017891931699023408564_);" d="M792.959,771.056
								c-15.113,0.001-26.911-3.914-35.744-11.798c-26.676-23.807-21.652-80.691-16.333-140.915
								c6.382-72.262,12.981-146.984-30.167-181.386c-32.305-25.757-88.522-25.183-171.866,1.763
								c-41.81,13.518-77.085,19.966-104.869,19.202c-25.245-0.705-45.124-7.42-59.086-19.958
								c-43.046-38.655-24.866-125.943-10.259-196.081c10.033-48.175,18.698-89.78,3.625-99.838
								c-9.898-6.605-29.918,0.576-61.207,21.948c-30.183,20.617-59.019,26.615-85.704,17.829
								C145.599,156.884,97.093,17.752,58.118-94.042C30.69-172.716,7.001-240.661-18.537-247.648
								c-5.924-1.621-11.701,0.036-17.656,5.063l-0.646-0.764c6.139-5.184,12.386-6.953,18.566-5.264
								c26.045,7.125,49.813,75.301,77.335,154.241C97.965,17.215,146.38,156.089,221.66,180.873
								c26.376,8.684,54.916,2.727,84.828-17.705c32.104-21.929,51.909-28.907,62.327-21.955
								c15.635,10.433,7.323,50.344-3.201,100.874c-14.555,69.887-32.669,156.862,9.949,195.134
								c13.78,12.374,33.444,19.003,58.446,19.701c27.651,0.76,62.831-5.672,104.533-19.153
								c83.686-27.056,140.207-27.577,172.798-1.593c19.504,15.551,30.616,40.938,33.971,77.611
								c2.956,32.31-0.291,69.082-3.433,104.644c-5.296,59.967-10.298,116.608,16.004,140.081
								c12.831,11.452,32.145,14.348,59.038,8.849l0.201,0.98C808.274,770.148,800.231,771.056,792.959,771.056z"/>
						</g>
					</g>
					<g>
						<g>
							
								<linearGradient id="SVGID_00000182487099409042130260000015936431024340993461_" gradientUnits="userSpaceOnUse" x1="-43.104" y1="258.7476" x2="828.2656" y2="258.7476">
								<stop  offset="0" style="stop-color:#FF25B6"/>
								<stop  offset="0.013" style="stop-color:#F720C0"/>
								<stop  offset="0.0526" style="stop-color:#E112DB"/>
								<stop  offset="0.093" style="stop-color:#D208EE"/>
								<stop  offset="0.1345" style="stop-color:#C902F9"/>
								<stop  offset="0.1787" style="stop-color:#C600FD"/>
								<stop  offset="0.475" style="stop-color:#432AF3"/>
								<stop  offset="0.6457" style="stop-color:#2747ED"/>
								<stop  offset="1" style="stop-color:#000422"/>
							</linearGradient>
							<path style="fill:url(#SVGID_00000182487099409042130260000015936431024340993461_);" d="M805.985,778.862
								c-15.772,0-28.108-4.097-37.389-12.354c-27.312-24.301-23.413-81.453-19.287-141.96
								c4.963-72.763,10.094-148.003-34.28-183.174c-32.813-26.008-88.652-26.379-170.71-1.132
								c-41.224,12.684-76.135,18.479-103.783,17.226c-25.135-1.14-45.083-8.151-59.29-20.842
								c-44.182-39.467-27.723-127.021-14.498-197.371c9.09-48.356,16.941-90.117,1.43-100.296
								c-10.061-6.603-29.814,0.251-60.387,20.95c-29.045,19.663-57.083,25.319-83.341,16.805
								C147.46,151.753,95.921,9.957,54.51-103.98C25.456-183.913,0.365-252.946-25.4-259.813
								c-5.788-1.544-11.367,0.043-17.059,4.85l-0.646-0.764c5.877-4.962,11.919-6.662,17.962-5.052
								c26.269,7.002,51.443,76.261,80.591,156.457C96.787,9.41,148.233,150.953,224.759,175.765
								c25.946,8.411,53.694,2.799,82.472-16.682c31.376-21.242,50.915-27.901,61.497-20.959
								c16.068,10.545,8.538,50.602-0.997,101.317c-13.179,70.104-29.58,157.35,14.181,196.44
								c14.031,12.533,33.77,19.46,58.668,20.589c27.539,1.243,62.33-4.533,103.443-17.182
								c82.398-25.351,138.535-24.923,171.626,1.303c20.049,15.891,31.813,41.601,35.965,78.601
								c3.659,32.599,1.134,69.621-1.308,105.425c-4.109,60.256-7.991,117.171,18.953,141.146
								c13.024,11.589,32.268,14.811,58.821,9.852l0.184,0.982C820.184,778.106,812.767,778.862,805.985,778.862z"/>
						</g>
					</g>
					<g>
						<g>
							
								<linearGradient id="SVGID_00000182525687394090896200000010065804014293093055_" gradientUnits="userSpaceOnUse" x1="-49.5923" y1="256.6347" x2="839.5439" y2="256.6347">
								<stop  offset="0" style="stop-color:#FF25B6"/>
								<stop  offset="0.013" style="stop-color:#F720C0"/>
								<stop  offset="0.0526" style="stop-color:#E112DB"/>
								<stop  offset="0.093" style="stop-color:#D208EE"/>
								<stop  offset="0.1345" style="stop-color:#C902F9"/>
								<stop  offset="0.1787" style="stop-color:#C600FD"/>
								<stop  offset="0.475" style="stop-color:#432AF3"/>
								<stop  offset="0.6457" style="stop-color:#2747ED"/>
								<stop  offset="1" style="stop-color:#000422"/>
							</linearGradient>
							<path style="fill:url(#SVGID_00000182525687394090896200000010065804014293093055_);" d="M819.199,786.95
								c-16.46,0-29.352-4.286-39.1-12.937c-27.955-24.808-25.189-82.251-22.26-143.067c3.529-73.304,7.18-149.102-38.451-185.071
								c-33.312-26.258-88.785-27.564-169.589-3.992c-40.647,11.857-75.206,17.001-102.721,15.269
								c-25.029-1.569-45.048-8.878-59.501-21.722c-45.348-40.303-30.613-128.168-18.773-198.769
								c8.145-48.566,15.179-90.508-0.781-100.807c-10.219-6.593-29.705-0.062-59.575,19.973
								c-27.942,18.743-55.195,24.065-80.999,15.818C149.251,146.656,94.616,2.114,50.716-114.028
								C20.012-195.258-6.505-265.41-32.479-272.155c-5.642-1.467-11.031,0.053-16.468,4.643l-0.646-0.764
								c5.624-4.749,11.467-6.38,17.365-4.848c26.475,6.876,53.077,77.252,83.878,158.742
								c43.824,115.94,98.365,260.232,176.103,285.074c25.5,8.149,52.462,2.867,80.137-15.696
								c30.236-20.28,50.084-26.818,60.675-19.983c16.513,10.656,9.767,50.883,1.226,101.813
								c-11.799,70.358-26.483,157.92,18.451,197.856c14.282,12.692,34.098,19.917,58.899,21.472
								c27.408,1.72,61.844-3.406,102.379-15.23c81.136-23.67,136.903-22.306,170.487,4.167
								c20.606,16.242,33.033,42.293,37.993,79.64c4.37,32.908,2.574,70.2,0.837,106.265c-2.916,60.57-5.671,117.781,21.925,142.272
								c13.214,11.726,32.389,15.273,58.615,10.844l0.166,0.986C832.232,786.33,825.457,786.95,819.199,786.95z"/>
						</g>
					</g>
					<g>
						<g>
							
								<linearGradient id="SVGID_00000015329442610800507500000017921851027715046068_" gradientUnits="userSpaceOnUse" x1="-56.311" y1="254.5766" x2="850.9551" y2="254.5766">
								<stop  offset="0" style="stop-color:#FF25B6"/>
								<stop  offset="0.013" style="stop-color:#F720C0"/>
								<stop  offset="0.0526" style="stop-color:#E112DB"/>
								<stop  offset="0.093" style="stop-color:#D208EE"/>
								<stop  offset="0.1345" style="stop-color:#C902F9"/>
								<stop  offset="0.1787" style="stop-color:#C600FD"/>
								<stop  offset="0.475" style="stop-color:#432AF3"/>
								<stop  offset="0.6457" style="stop-color:#2747ED"/>
								<stop  offset="1" style="stop-color:#000422"/>
							</linearGradient>
							<path style="fill:url(#SVGID_00000015329442610800507500000017921851027715046068_);" d="M832.611,795.331
								c-17.179,0.001-30.649-4.484-40.888-13.55c-28.609-25.332-26.98-83.095-25.255-144.248
								c1.023-36.301,2.083-73.837-2.994-106.982c-5.735-37.452-18.716-63.651-39.682-80.095
								c-33.805-26.512-88.92-28.741-168.494-6.819c-40.085,11.042-74.297,15.527-101.687,13.336
								c-24.93-1.996-45.022-9.6-59.718-22.599c-46.544-41.167-33.539-129.39-23.089-200.278
								c7.194-48.804,13.408-90.952-3.013-101.371c-10.373-6.582-29.598-0.361-58.769,19.018
								c-26.87,17.849-53.338,22.851-78.676,14.865C150.977,141.592,93.18-5.775,46.738-124.186
								c-32.383-82.566-60.35-153.873-86.517-160.496c-5.5-1.392-10.697,0.062-15.887,4.445L-56.311-281
								c5.379-4.543,11.022-6.106,16.778-4.65c26.664,6.749,54.718,78.277,87.202,161.1
								C94.033-6.338,151.734,140.782,230.648,165.655c25.031,7.889,51.215,2.929,77.821-14.745
								c29.537-19.621,49.117-25.845,59.858-19.029c16.969,10.767,11.01,51.187,3.466,102.36
								c-10.415,70.65-23.375,158.575,22.762,199.383c14.531,12.853,34.427,20.372,59.136,22.351
								c27.269,2.183,61.368-2.291,101.342-13.304c79.9-22.01,135.308-19.724,169.376,6.997
								c21.177,16.608,34.278,43.016,40.055,80.73c5.09,33.235,4.029,70.817,3.004,107.162
								c-1.718,60.913-3.341,118.448,24.919,143.472c13.398,11.864,32.507,15.733,58.42,11.831l0.148,0.988
								C844.423,794.837,838.311,795.331,832.611,795.331z"/>
						</g>
					</g>
					<g>
						<g>
							
								<linearGradient id="SVGID_00000133513126160512604130000007192270230862841996_" gradientUnits="userSpaceOnUse" x1="-63.2603" y1="252.5721" x2="862.5068" y2="252.5721">
								<stop  offset="0" style="stop-color:#FF25B6"/>
								<stop  offset="0.013" style="stop-color:#F720C0"/>
								<stop  offset="0.0526" style="stop-color:#E112DB"/>
								<stop  offset="0.093" style="stop-color:#D208EE"/>
								<stop  offset="0.1345" style="stop-color:#C902F9"/>
								<stop  offset="0.1787" style="stop-color:#C600FD"/>
								<stop  offset="0.475" style="stop-color:#432AF3"/>
								<stop  offset="0.6457" style="stop-color:#2747ED"/>
								<stop  offset="1" style="stop-color:#000422"/>
							</linearGradient>
							<path style="fill:url(#SVGID_00000133513126160512604130000007192270230862841996_);" d="M846.223,804.01
								c-17.924,0.001-31.998-4.692-42.749-14.193c-29.273-25.873-28.788-83.981-28.272-145.5
								c0.306-36.601,0.622-74.447-5.182-107.94c-6.559-37.851-20.226-64.43-41.779-81.258
								c-34.283-26.767-89.047-29.912-167.426-9.612c-39.536,10.237-73.411,14.079-100.681,11.424
								c-24.835-2.42-45.002-10.316-59.942-23.472c-47.768-42.061-36.498-130.686-27.443-201.899
								c6.239-49.07,11.628-91.448-5.263-101.986c-10.525-6.564-29.484-0.65-57.966,18.082
								c-25.833,16.988-51.532,21.682-76.383,13.948C152.632,136.554,91.605-13.719,42.57-134.464
								C8.481-218.404-20.958-290.897-47.3-297.397c-5.35-1.319-10.362,0.07-15.315,4.252l-0.645-0.764
								c5.144-4.342,10.595-5.841,16.2-4.459c26.836,6.622,56.365,79.334,90.556,163.527
								C92.453-14.29,153.38,135.739,233.433,160.648c24.553,7.641,49.966,2.986,75.536-13.83
								c28.843-18.967,48.156-24.888,59.045-18.094c17.435,10.876,12.267,51.513,5.725,102.96
								c-9.025,70.978-20.257,159.312,27.113,201.021c31.408,27.657,83.651,31.525,159.712,11.83
								c78.697-20.381,133.747-17.177,168.291,9.793c21.759,16.987,35.546,43.77,42.149,81.875
								c5.819,33.582,5.502,71.475,5.196,108.12c-0.514,61.284-0.997,119.171,27.935,144.742
								c13.585,12.007,32.634,16.197,58.239,12.809l0.131,0.992C856.759,803.628,851.333,804.01,846.223,804.01z"/>
						</g>
					</g>
					<g>
						<g>
							
								<linearGradient id="SVGID_00000016060690418311141010000012545467537175020419_" gradientUnits="userSpaceOnUse" x1="-70.438" y1="250.6235" x2="874.2012" y2="250.6235">
								<stop  offset="0" style="stop-color:#FF25B6"/>
								<stop  offset="0.013" style="stop-color:#F720C0"/>
								<stop  offset="0.0526" style="stop-color:#E112DB"/>
								<stop  offset="0.093" style="stop-color:#D208EE"/>
								<stop  offset="0.1345" style="stop-color:#C902F9"/>
								<stop  offset="0.1787" style="stop-color:#C600FD"/>
								<stop  offset="0.475" style="stop-color:#432AF3"/>
								<stop  offset="0.6457" style="stop-color:#2747ED"/>
								<stop  offset="1" style="stop-color:#000422"/>
							</linearGradient>
							<path style="fill:url(#SVGID_00000016060690418311141010000012545467537175020419_);" d="M860.049,812.99
								c-18.702,0-33.405-4.912-44.692-14.873c-29.947-26.433-30.61-84.909-31.313-146.82c-0.419-36.921-0.852-75.098-7.393-108.958
								c-7.394-38.271-21.756-65.249-43.91-82.476c-34.755-27.026-89.18-31.076-166.388-12.379c-39,9.443-72.546,12.65-99.703,9.537
								c-24.744-2.84-44.988-11.029-60.171-24.342c-49.02-42.981-39.496-132.055-31.844-203.626
								c5.278-49.367,9.837-92.001-7.538-102.659c-10.664-6.542-29.365-0.927-57.169,17.165
								c-24.827,16.157-49.763,20.553-74.116,13.065c-81.6-25.087-145.921-178.347-197.605-301.494
								C2.387-230.217-28.548-303.927-55.042-310.3c-5.2-1.252-10.027,0.079-14.751,4.067l-0.646-0.764
								c4.914-4.15,10.174-5.59,15.63-4.276c26.986,6.492,58.012,80.417,93.938,166.017
								C90.733-22.301,154.955,130.72,236.107,155.669c24.054,7.395,48.709,3.039,73.276-12.947
								c28.161-18.325,47.21-23.944,58.238-17.18c17.913,10.988,13.542,51.865,8.009,103.618
								c-7.628,71.342-17.121,160.129,31.509,202.768c31.922,27.99,83.925,32.762,158.979,14.584
								c77.522-18.771,132.228-14.663,167.237,12.563c22.354,17.382,36.837,44.556,44.277,83.075
								c6.559,33.948,6.992,72.172,7.411,109.136c0.699,61.683,1.36,119.944,30.975,146.082
								c13.769,12.151,32.762,16.66,58.069,13.783l0.113,0.994C869.249,812.707,864.533,812.99,860.049,812.99z"/>
						</g>
					</g>
				</g>
			</g>
		</g>
	</g>
</g>
<g id="Layer_1">
</g>
</svg>
