<svg width="32" height="23" fill="none" xmlns="http://www.w3.org/2000/svg"><rect x="1" y="1" width="30" height="21" rx="2" fill="#fff" stroke="#7C82FF"/><path d="M8.634 15.16c-.736 0-1.37-.163-1.904-.488A3.27 3.27 0 0 1 5.502 13.3c-.285-.59-.427-1.276-.427-2.059 0-.782.142-1.471.427-2.068.288-.6.69-1.067 1.203-1.402.517-.338 1.12-.507 1.81-.507.398 0 .79.066 1.178.2.388.132.741.347 1.06.645.317.295.57.686.76 1.174.189.487.283 1.087.283 1.8v.496H5.91v-1.014h4.693c0-.43-.086-.815-.258-1.153a1.948 1.948 0 0 0-.726-.8c-.312-.196-.68-.294-1.104-.294-.467 0-.872.116-1.213.348a2.29 2.29 0 0 0-.78.895 2.629 2.629 0 0 0-.274 1.183v.677c0 .576.1 1.065.298 1.466.202.398.482.701.84.91.358.205.774.308 1.248.308.308 0 .587-.043.835-.13.252-.089.47-.221.652-.397.182-.179.323-.4.422-.666l1.134.318c-.12.385-.32.723-.602 1.014-.281.289-.63.514-1.044.677-.414.159-.88.238-1.397.238ZM18.99 9.073l-1.054.298a1.96 1.96 0 0 0-.293-.512 1.424 1.424 0 0 0-.517-.418c-.219-.109-.5-.164-.84-.164-.468 0-.857.108-1.169.324-.308.212-.462.482-.462.81 0 .292.106.522.318.691.212.169.544.31.994.423l1.134.278c.683.166 1.191.42 1.526.76.335.339.502.774.502 1.308 0 .438-.126.829-.378 1.174-.248.344-.596.616-1.044.815-.447.199-.967.298-1.56.298-.78 0-1.424-.169-1.935-.507-.51-.338-.833-.832-.97-1.481l1.114-.279c.107.411.307.72.602.925.298.205.688.308 1.168.308.547 0 .982-.116 1.303-.348.325-.235.487-.517.487-.845a.888.888 0 0 0-.278-.666c-.186-.183-.47-.319-.855-.408l-1.273-.298c-.7-.166-1.213-.423-1.541-.77-.325-.352-.487-.791-.487-1.318 0-.431.12-.812.363-1.144a2.47 2.47 0 0 1 .999-.78 3.508 3.508 0 0 1 1.441-.284c.756 0 1.35.166 1.78.497.434.332.743.77.925 1.313Zm5.008 6.085c-.716 0-1.333-.169-1.85-.507a3.305 3.305 0 0 1-1.193-1.397c-.278-.593-.417-1.271-.417-2.033 0-.776.142-1.46.427-2.054a3.38 3.38 0 0 1 1.203-1.397c.517-.338 1.12-.507 1.81-.507.537 0 1.02.1 1.451.298.431.2.784.478 1.06.836.275.358.445.775.511 1.253h-1.173c-.09-.348-.288-.657-.596-.925-.305-.272-.716-.408-1.233-.408-.458 0-.859.12-1.203.358-.342.235-.609.569-.8 1-.19.427-.284.93-.284 1.506 0 .59.093 1.104.278 1.541.19.438.454.777.796 1.02.344.241.749.362 1.213.362.305 0 .581-.053.83-.159.248-.106.459-.258.631-.457.173-.2.295-.438.368-.716H27c-.066.45-.23.857-.492 1.218a2.751 2.751 0 0 1-1.029.855c-.424.209-.918.313-1.481.313Z" fill="#282828"/></svg>