<svg width="100" height="50" viewBox="0 0 100 50" fill="none" xmlns="http://www.w3.org/2000/svg">
<rect x="0.5" y="0.5" width="99" height="49" stroke="white"/>
<path d="M23.5781 31.176C23.7381 31.256 23.8581 31.36 23.9381 31.488C24.0341 31.616 24.0821 31.8 24.0821 32.04C24.0821 32.344 23.9621 32.592 23.7221 32.784C23.4981 32.96 23.2341 33.048 22.9301 33.048C22.5781 33.048 22.1781 32.96 21.7301 32.784C20.8341 32.384 19.9541 31.648 19.0901 30.576C18.2421 29.488 17.2181 27.928 16.0181 25.896C15.1061 26.6 14.1781 27.256 13.2341 27.864C13.2341 28.2 13.2421 28.592 13.2581 29.04C13.2901 29.472 13.3061 29.792 13.3061 30C13.3381 30.928 13.3541 31.544 13.3541 31.848C13.3541 32.12 13.2661 32.384 13.0901 32.64C12.9141 32.88 12.6501 33 12.2981 33C11.7861 33 11.4181 32.92 11.1941 32.76C10.9701 32.584 10.8341 32.336 10.7861 32.016C10.6581 31.216 10.5941 30.448 10.5941 29.712C10.5941 28.88 10.6581 27.68 10.7861 26.112C10.9141 24.608 10.9781 23.48 10.9781 22.728C10.9781 22.44 10.9621 22.024 10.9301 21.48C10.9141 21.048 10.8661 20.648 10.7861 20.28C10.7221 19.768 10.6901 19.408 10.6901 19.2C10.6901 18.688 10.8021 18.32 11.0261 18.096C11.2501 17.872 11.5941 17.76 12.0581 17.76C12.4101 17.76 12.6981 17.864 12.9221 18.072C13.1621 18.264 13.2981 18.528 13.3301 18.864C13.4101 20.224 13.4501 21.272 13.4501 22.008C13.4341 22.408 13.4021 22.984 13.3541 23.736C13.3221 24.472 13.2901 24.936 13.2581 25.128C13.8021 24.824 14.8661 23.952 16.4501 22.512C18.0501 21.056 19.1861 19.912 19.8581 19.08L20.1701 18.72C20.4261 18.384 20.6421 18.152 20.8181 18.024C20.9941 17.896 21.2341 17.832 21.5381 17.832C21.8421 17.832 22.1141 17.936 22.3541 18.144C22.6101 18.336 22.7381 18.568 22.7381 18.84C22.7381 19.368 22.4661 19.904 21.9221 20.448C20.5941 21.824 19.2661 23.104 17.9381 24.288C19.8101 27.792 21.6901 30.088 23.5781 31.176ZM37.2888 26.64C38.0248 26.64 38.3928 27.056 38.3928 27.888C38.3928 28.32 38.2408 28.632 37.9368 28.824C37.6488 29.016 37.2888 29.112 36.8568 29.112C36.7288 29.112 36.5928 29.104 36.4488 29.088C36.3048 29.072 36.1528 29.056 35.9928 29.04C35.5128 28.96 35.0808 28.92 34.6968 28.92C34.4248 28.92 34.0168 28.952 33.4728 29.016C32.8968 29.08 32.4568 29.112 32.1528 29.112C31.7208 29.112 31.3368 29.032 31.0008 28.872C30.6648 28.696 30.4968 28.408 30.4968 28.008C30.4968 27.448 30.7048 27.088 31.1208 26.928C31.5368 26.752 32.1208 26.664 32.8728 26.664L33.6648 26.688C34.0488 26.72 34.3448 26.736 34.5528 26.736L36.3048 26.688L37.2888 26.64ZM58.8643 28.152C58.8643 29.048 58.5203 29.904 57.8323 30.72C57.1603 31.52 56.3043 32.152 55.2643 32.616C54.8163 32.76 54.2483 32.88 53.5603 32.976C52.8723 33.056 52.1763 33.104 51.4723 33.12C50.0963 33.12 48.8163 32.928 47.6323 32.544C47.4243 32.496 47.1843 32.36 46.9123 32.136C46.6403 31.912 46.5123 31.616 46.5283 31.248V30.432C46.5283 29.536 46.5043 28.672 46.4563 27.84C46.4243 26.752 46.4083 25.92 46.4083 25.344L46.3843 22.632C46.3843 21.672 46.4163 20.704 46.4803 19.728C46.4963 19.232 46.6803 18.816 47.0323 18.48C47.4003 18.128 47.8563 17.912 48.4003 17.832C48.6083 17.816 48.9843 17.808 49.5283 17.808L51.8323 17.832C52.9363 17.832 53.9203 17.976 54.7843 18.264C55.6483 18.552 56.3923 19.016 57.0163 19.656C57.2243 19.896 57.3923 20.216 57.5203 20.616C57.6483 21 57.7123 21.376 57.7123 21.744C57.6643 23.04 56.9203 24.096 55.4803 24.912C56.6323 25.056 57.4803 25.416 58.0243 25.992C58.5843 26.568 58.8643 27.288 58.8643 28.152ZM49.7923 24.336C49.9523 24.32 50.2083 24.312 50.5603 24.312H51.6403C52.1203 24.312 52.4563 24.296 52.6483 24.264C54.2803 23.896 55.0963 23.248 55.0963 22.32C55.0963 22.08 55.0563 21.824 54.9763 21.552C54.9123 21.28 54.8243 21.088 54.7123 20.976C54.2963 20.576 53.9043 20.32 53.5363 20.208C53.1683 20.08 52.6243 20.016 51.9043 20.016C50.5123 20.016 49.5123 20.088 48.9043 20.232L48.9283 24.36L49.7923 24.336ZM50.8963 31.104C52.5603 31.104 53.8643 30.896 54.8083 30.48C55.7683 30.064 56.2483 29.248 56.2483 28.032C56.2483 27.552 55.8963 27.16 55.1923 26.856C54.4883 26.536 53.7203 26.376 52.8883 26.376C51.8643 26.376 51.1443 26.4 50.7283 26.448C50.3763 26.48 50.1363 26.496 50.0083 26.496C49.7683 26.496 49.6003 26.488 49.5043 26.472C49.4243 26.472 49.3283 26.472 49.2163 26.472C49.1203 26.456 49.0163 26.456 48.9043 26.472L48.9283 27.264C48.9443 27.456 48.9683 27.984 49.0003 28.848C49.0483 29.696 49.0563 30.296 49.0243 30.648C49.3923 30.808 49.7123 30.928 49.9843 31.008C50.2563 31.072 50.5603 31.104 50.8963 31.104ZM63.7803 29.28C63.7803 29.888 63.8683 30.36 64.0443 30.696C64.2363 31.016 64.4763 31.176 64.7643 31.176C64.9243 31.176 65.0763 31.168 65.2203 31.152C65.3643 31.12 65.5083 31.104 65.6523 31.104C65.8123 31.104 65.9483 31.184 66.0603 31.344C66.1883 31.504 66.2523 31.68 66.2523 31.872C66.2523 32.256 66.0683 32.56 65.7003 32.784C65.3483 32.992 64.8683 33.096 64.2603 33.096C63.8283 33.096 63.3883 32.968 62.9403 32.712C62.5083 32.44 62.1483 32.024 61.8603 31.464C61.5723 30.888 61.4283 30.176 61.4283 29.328C61.4283 27.504 61.4603 25.96 61.5243 24.696C61.6043 23.192 61.6443 21.296 61.6443 19.008C61.6443 18.288 61.6843 17.784 61.7643 17.496C61.8603 17.272 62.0123 17.104 62.2203 16.992C62.4443 16.864 62.6763 16.8 62.9163 16.8C63.1563 16.8 63.3643 16.84 63.5403 16.92C63.7323 17 63.8603 17.128 63.9243 17.304C63.9883 17.496 64.0283 17.688 64.0443 17.88C64.0763 18.056 64.0923 18.312 64.0923 18.648C64.0923 19.304 64.0683 19.936 64.0203 20.544C63.9883 21.28 63.9723 21.816 63.9723 22.152C63.8443 24.968 63.7803 27.344 63.7803 29.28ZM77.3932 25.296C77.5212 25.52 77.6252 25.848 77.7052 26.28C77.7852 26.696 77.8252 27.072 77.8252 27.408C77.8252 28.032 77.6892 28.92 77.4172 30.072C76.3132 32.088 74.6812 33.096 72.5212 33.096C71.7212 33.096 70.9052 32.832 70.0732 32.304C69.2412 31.776 68.6652 31.168 68.3452 30.48C67.9132 29.104 67.6972 28.232 67.6972 27.864C67.6972 27.224 67.8332 26.544 68.1052 25.824C68.3932 25.104 68.7532 24.48 69.1852 23.952C69.4572 23.584 69.9452 23.272 70.6492 23.016C71.3532 22.744 71.9932 22.608 72.5692 22.608C73.6892 22.608 74.6412 22.824 75.4252 23.256C76.2092 23.672 76.8652 24.352 77.3932 25.296ZM75.3052 29.16C75.3852 28.952 75.4252 28.416 75.4252 27.552C75.4252 27.088 75.3372 26.632 75.1612 26.184C75.0012 25.736 74.7612 25.352 74.4412 25.032C74.4092 25 74.3212 24.952 74.1772 24.888C74.0332 24.808 73.8332 24.736 73.5772 24.672C73.3372 24.592 73.0572 24.552 72.7372 24.552C71.8412 24.552 71.1852 24.912 70.7692 25.632C70.3532 26.352 70.1452 27.168 70.1452 28.08C70.1452 28.24 70.1852 28.544 70.2652 28.992C70.3612 29.44 70.4412 29.72 70.5052 29.832C70.5532 29.944 70.6732 30.104 70.8652 30.312C71.0732 30.504 71.3212 30.68 71.6092 30.84C71.9132 30.984 72.2252 31.056 72.5452 31.056C73.2652 31.056 73.8412 30.888 74.2732 30.552C74.7052 30.2 75.0492 29.736 75.3052 29.16ZM89.3864 26.976C89.3864 27.712 89.2024 28.336 88.8344 28.848C88.4664 29.344 87.9784 29.784 87.3704 30.168C86.5384 30.616 85.5704 30.848 84.4664 30.864C84.4024 31.056 84.3704 31.256 84.3704 31.464C84.3704 31.656 84.4744 31.8 84.6824 31.896C84.9064 31.976 85.2984 32.04 85.8584 32.088C86.3224 32.12 86.8424 32.224 87.4184 32.4C88.0104 32.56 88.4744 32.744 88.8104 32.952C89.2264 33.256 89.5144 33.584 89.6744 33.936C89.8504 34.288 89.9384 34.728 89.9384 35.256C89.9384 35.944 89.6184 36.52 88.9784 36.984C88.3544 37.464 87.6184 37.816 86.7704 38.04C85.9224 38.264 85.1784 38.376 84.5384 38.376C83.7704 38.376 83.1144 38.28 82.5704 38.088C82.0424 37.912 81.5384 37.664 81.0584 37.344C80.7224 37.104 80.4584 36.8 80.2664 36.432C80.0744 36.064 79.9784 35.68 79.9784 35.28C79.9784 34.88 80.1064 34.496 80.3624 34.128C80.6344 33.76 80.9624 33.44 81.3464 33.168C81.7304 32.912 82.0904 32.736 82.4264 32.64C82.2984 32.48 82.2024 32.344 82.1384 32.232C82.0904 32.104 82.0664 31.96 82.0664 31.8C82.0664 31.256 82.2024 30.8 82.4744 30.432C81.7064 30.176 81.0984 29.72 80.6504 29.064C80.2184 28.408 80.0024 27.64 80.0024 26.76C80.0024 26.184 80.1384 25.664 80.4104 25.2C80.6824 24.72 81.0584 24.264 81.5384 23.832C82.3544 23.096 83.4824 22.728 84.9224 22.728C85.1144 22.728 85.3784 22.76 85.7144 22.824C86.0504 22.888 86.3784 22.976 86.6984 23.088C87.2104 22.864 87.8104 22.632 88.4984 22.392C89.1864 22.152 89.6504 22.032 89.8904 22.032C90.2584 22.032 90.5304 22.096 90.7064 22.224C90.8984 22.336 90.9944 22.592 90.9944 22.992C90.9944 23.36 90.7784 23.624 90.3464 23.784C89.9304 23.944 89.2984 24.096 88.4504 24.24C89.0744 24.992 89.3864 25.904 89.3864 26.976ZM84.3944 28.896C85.3224 28.896 85.9944 28.704 86.4104 28.32C86.8424 27.936 87.0584 27.36 87.0584 26.592C87.0584 25.328 86.3144 24.696 84.8264 24.696C84.2504 24.696 83.7944 24.76 83.4584 24.888C83.1384 25.016 82.8744 25.232 82.6664 25.536C82.3784 25.92 82.2344 26.44 82.2344 27.096C82.2344 27.608 82.4424 28.04 82.8584 28.392C83.2904 28.728 83.8024 28.896 84.3944 28.896ZM82.2344 35.448C82.2344 35.72 82.4824 35.952 82.9784 36.144C83.4904 36.352 84.0344 36.456 84.6104 36.456C85.2504 36.456 85.9064 36.336 86.5784 36.096C87.2664 35.872 87.6104 35.568 87.6104 35.184C87.6104 34.624 87.1144 34.264 86.1224 34.104C85.7704 34.04 85.2584 33.92 84.5864 33.744C84.5064 33.728 84.4104 33.704 84.2984 33.672C84.2024 33.64 84.0984 33.608 83.9864 33.576C83.6344 33.704 83.2504 33.968 82.8344 34.368C82.4344 34.784 82.2344 35.144 82.2344 35.448Z" fill="white"/>
</svg>
